<svg width="25" height="24" viewBox="0 0 25 24" fill="none" xmlns="http://www.w3.org/2000/svg">
<g clip-path="url(#clip0)">
<path d="M24.7344 15.5397C24.5763 15.1541 24.2042 14.921 23.8105 14.9205C23.8085 14.9205 23.8065 14.92 23.8045 14.92C23.798 14.92 23.7925 14.9225 23.786 14.923C23.709 14.925 23.632 14.9375 23.5554 14.958C23.5269 14.9655 23.4999 14.973 23.4724 14.9825C23.4584 14.9875 23.4439 14.9895 23.4294 14.995C22.1744 15.5107 20.8414 15.7723 19.4663 15.7723C13.7156 15.7723 9.03683 11.0935 9.03683 5.34279C9.03683 3.96777 9.29793 2.63475 9.81413 1.37977C9.82163 1.36226 9.82413 1.34375 9.83013 1.32575C9.83764 1.30374 9.84414 1.28173 9.85014 1.25872C9.87265 1.17619 9.88665 1.09316 9.88766 1.01013C9.88766 1.00662 9.88916 1.00312 9.88916 0.999122C9.88916 0.998121 9.88866 0.996621 9.88866 0.99562C9.88866 0.935597 9.88165 0.876575 9.87065 0.818552C9.86815 0.806047 9.86615 0.793543 9.86365 0.781038C9.85064 0.723516 9.83413 0.666494 9.81113 0.612473C9.80212 0.591465 9.78962 0.573458 9.77961 0.55345C9.67507 0.34487 9.50201 0.169302 9.26892 0.0737654C8.99631 -0.0377775 8.7047 -0.0177698 8.4586 0.0997754C8.4561 0.100776 8.4531 0.101276 8.4506 0.102777C6.95552 0.717513 5.60601 1.61986 4.43956 2.78631C-0.40181 7.63368 -0.40181 15.5207 4.44006 20.3691C6.86399 22.79 10.0472 24 13.2309 24C16.4147 24 19.5984 22.7895 22.0228 20.3686C23.1853 19.2056 24.0861 17.8606 24.7009 16.3705C24.7039 16.365 24.7049 16.3585 24.7074 16.3525C24.7359 16.293 24.7589 16.231 24.7754 16.1665C24.7764 16.1615 24.7784 16.157 24.7799 16.152C24.8274 15.9549 24.8174 15.7418 24.7344 15.5397ZM20.6093 18.954C16.5412 23.0161 9.92267 23.0161 5.8556 18.954C1.79304 14.8865 1.79304 8.26792 5.8551 4.20086C6.28927 3.76669 6.75845 3.38404 7.25014 3.03941C7.10908 3.7937 7.03606 4.56249 7.03606 5.3433C7.03606 12.1974 12.6122 17.7736 19.4663 17.7736C20.2466 17.7736 21.0159 17.7006 21.7702 17.5595C21.4251 18.0507 21.0435 18.5199 20.6093 18.954Z" fill="white" fill-opacity="0.5"/>
</g>
<defs>
<clipPath id="clip0">
<rect width="24" height="24" fill="white" transform="translate(0.808594)"/>
</clipPath>
</defs>
</svg>
