<svg width="24" height="24" viewBox="0 0 24 24" fill="none" xmlns="http://www.w3.org/2000/svg">
<g clip-path="url(#clip0)">
<path d="M21.25 24H4.5C2.983 24 1.75 22.767 1.75 21.25V2.75C1.75 1.233 2.983 0 4.5 0H21.25C22.767 0 24 1.233 24 2.75V21.25C24 22.767 22.767 24 21.25 24Z" fill="#3FDBB1"/>
<path d="M13 0H4.5C2.983 0 1.75 1.233 1.75 2.75V21.25C1.75 22.767 2.983 24 4.5 24H13V0Z" fill="#51E6BE"/>
<path d="M4.25 8.99999H0.75C0.336 8.99999 0 8.66399 0 8.24999V5.75C0 5.336 0.336 5 0.75 5H4.25C4.664 5 5 5.336 5 5.75V8.24999C5 8.66399 4.664 8.99999 4.25 8.99999Z" fill="#3FDBB1"/>
<path d="M4.25 19H0.75C0.336 19 0 18.664 0 18.25V15.75C0 15.336 0.336 15 0.75 15H4.25C4.664 15 5 15.336 5 15.75V18.25C5 18.664 4.664 19 4.25 19Z" fill="#3FDBB1"/>
<path d="M5 17H0V18.25C0 18.664 0.336 19 0.75 19H4.25C4.664 19 5 18.664 5 18.25V17Z" fill="#4ECBA9"/>
<path d="M5 7H0V8.25C0 8.664 0.336 9 0.75 9H4.25C4.664 9 5 8.664 5 8.25V7Z" fill="#4ECBA9"/>
<path d="M13 18C11.395 18 9.889 17.376 8.757 16.244C7.624 15.111 7 13.603 7 12C7 10.396 7.624 8.889 8.757 7.756C9.889 6.624 11.396 6 13 6C14.604 6 16.111 6.623 17.243 7.756C18.376 8.889 19 10.396 19 12C19 13.603 18.376 15.111 17.243 16.244C16.111 17.376 14.604 18 13 18Z" fill="#607D8B"/>
<path d="M13 6C11.395 6 9.889 6.624 8.757 7.756C7.624 8.889 7 10.396 7 12C7 13.603 7.624 15.111 8.757 16.244C9.889 17.376 11.396 18 13 18V15.022C12.208 15.022 11.434 14.7 10.877 14.139C10.311 13.569 10 12.81 10 12.001C10 11.191 10.311 10.433 10.877 9.863C11.434 9.302 12.217 9.021 13 9.021V6Z" fill="#546D79"/>
<path d="M13 10.637C12.655 10.637 12.375 10.357 12.375 10.012V7.625C12.375 7.28 12.655 7 13 7C13.345 7 13.625 7.28 13.625 7.625V10.012C13.625 10.356 13.345 10.637 13 10.637Z" fill="#455A64"/>
<path d="M13 17C12.655 17 12.375 16.72 12.375 16.375V13.988C12.375 13.643 12.655 13.363 13 13.363C13.345 13.363 13.625 13.643 13.625 13.988V16.375C13.625 16.72 13.345 17 13 17Z" fill="#455A64"/>
<path d="M13 7C12.655 7 12.375 7.28 12.375 7.625V10.012C12.375 10.357 12.655 10.637 13 10.637V7Z" fill="#3C4E57"/>
<path d="M13 13.363C12.655 13.363 12.375 13.643 12.375 13.988V16.375C12.375 16.72 12.655 17 13 17V13.363Z" fill="#3C4E57"/>
<path d="M11.011 12.625H8.625C8.28 12.625 8 12.345 8 12C8 11.655 8.28 11.375 8.625 11.375H11.011C11.357 11.375 11.636 11.655 11.636 12C11.636 12.345 11.356 12.625 11.011 12.625Z" fill="#455A64"/>
<path d="M17.3748 12.625H14.9888C14.6428 12.625 14.3638 12.345 14.3638 12C14.3638 11.655 14.6428 11.375 14.9888 11.375H17.3748C17.7198 11.375 17.9998 11.655 17.9998 12C17.9998 12.345 17.7198 12.625 17.3748 12.625Z" fill="#455A64"/>
<path d="M11.636 12H8C8 12.345 8.28 12.625 8.625 12.625H11.011C11.356 12.625 11.636 12.345 11.636 12Z" fill="#3C4E57"/>
<path d="M17.9998 12H14.3638C14.3638 12.345 14.6428 12.625 14.9888 12.625H17.3748C17.7198 12.625 17.9998 12.345 17.9998 12Z" fill="#3C4E57"/>
<path d="M12.0363 11.036C11.7923 11.28 11.3963 11.28 11.1523 11.036L9.46425 9.34801C9.22025 9.10401 9.22025 8.70801 9.46425 8.46401C9.70825 8.22001 10.1043 8.22001 10.3483 8.46401L12.0363 10.152C12.2803 10.396 12.2803 10.792 12.0363 11.036Z" fill="#455A64"/>
<path d="M16.5363 15.536C16.2923 15.78 15.8963 15.78 15.6523 15.536L13.9643 13.848C13.7202 13.604 13.7202 13.208 13.9643 12.964C14.2083 12.72 14.6043 12.72 14.8483 12.964L16.5363 14.652C16.7803 14.896 16.7793 15.292 16.5363 15.536Z" fill="#455A64"/>
<path d="M9.46425 8.46399C9.22025 8.70799 9.22025 9.10399 9.46425 9.34799L11.1523 11.036C11.3963 11.28 11.7923 11.28 12.0363 11.036L9.46425 8.46399Z" fill="#3C4E57"/>
<path d="M13.9643 12.964C13.7202 13.208 13.7202 13.604 13.9643 13.848L15.6523 15.536C15.8963 15.78 16.2923 15.78 16.5363 15.536L13.9643 12.964Z" fill="#3C4E57"/>
<path d="M12.0353 13.849L10.3483 15.536C10.1043 15.78 9.70825 15.78 9.46425 15.536C9.22025 15.292 9.22025 14.896 9.46425 14.652L11.1513 12.965C11.3953 12.721 11.7913 12.721 12.0353 12.965C12.2793 13.209 12.2803 13.604 12.0353 13.849Z" fill="#455A64"/>
<path d="M16.5362 9.348L14.8492 11.035C14.6052 11.279 14.2092 11.279 13.9652 11.035C13.7212 10.791 13.7212 10.396 13.9652 10.151L15.6522 8.46401C15.8962 8.22001 16.2922 8.22001 16.5362 8.46401C16.7802 8.70901 16.7792 9.105 16.5362 9.348Z" fill="#455A64"/>
<path d="M12.0349 12.965L9.46387 15.536C9.70787 15.78 10.1039 15.78 10.3479 15.536L12.0349 13.849C12.2799 13.604 12.2789 13.209 12.0349 12.965Z" fill="#3C4E57"/>
<path d="M16.5358 8.46399L13.9648 11.035C14.2088 11.279 14.6038 11.279 14.8488 11.035L16.5358 9.34799C16.7788 9.10499 16.7798 8.70899 16.5358 8.46399Z" fill="#3C4E57"/>
<path d="M13 15.022C12.208 15.022 11.434 14.7 10.877 14.139C10.311 13.569 10 12.81 10 12.001C10 11.191 10.311 10.433 10.877 9.86298C11.99 8.74098 14.01 8.74098 15.123 9.86298C15.689 10.433 16 11.191 16 12.001C16 12.81 15.689 13.569 15.123 14.139C14.566 14.7 13.792 15.022 13 15.022Z" fill="#ECEFF1"/>
<path d="M13 9.021C12.217 9.021 11.434 9.302 10.877 9.86299C10.311 10.433 10 11.191 10 12.001C10 12.81 10.311 13.569 10.877 14.139C11.434 14.7 12.208 15.022 13 15.022V9.021Z" fill="#CDD0D2"/>
</g>
<defs>
<clipPath id="clip0">
<rect width="24" height="24" fill="white"/>
</clipPath>
</defs>
</svg>
