<svg width="20" height="20" viewBox="0 0 20 20" fill="none" xmlns="http://www.w3.org/2000/svg">
<path d="M15.0846 10.3662L15.0753 10.525H15.2344H15.6244C15.8756 10.525 16.0827 10.3487 16.1369 10.1136C16.1496 10.0704 16.1495 10.0296 16.1494 10.0053C16.1494 10.0034 16.1494 10.0017 16.1494 10C16.1494 9.99833 16.1494 9.99656 16.1494 9.99468C16.1495 9.97045 16.1496 9.92957 16.1369 9.88637C16.0827 9.65134 15.8756 9.475 15.6244 9.475H15.2344H15.0753L15.0846 9.63381C15.085 9.64014 15.0854 9.64645 15.0857 9.65272C15.0929 9.77383 15.0994 9.88379 15.0994 10C15.0994 10.1162 15.0929 10.2262 15.0857 10.3473C15.0854 10.3536 15.085 10.3599 15.0846 10.3662Z" fill="white" stroke="white" stroke-width="0.3"/>
<path d="M13.7207 9.475H13.54L13.5733 9.65264C13.5935 9.76029 13.6007 9.87777 13.6007 10C13.6007 10.1222 13.5935 10.2397 13.5733 10.3474L13.54 10.525H13.7207H15.2357H15.3771L15.3854 10.3838C15.3859 10.3767 15.3863 10.3697 15.3867 10.3626C15.3937 10.2435 15.4007 10.1253 15.4007 10C15.4007 9.87466 15.3937 9.75653 15.3867 9.6374C15.3863 9.63034 15.3859 9.62327 15.3854 9.61619L15.3771 9.475H15.2357H13.7207Z" fill="white" stroke="white" stroke-width="0.3"/>
<path d="M14.7832 6.7112L14.5743 6.92651C14.5777 6.92986 14.581 6.93321 14.5844 6.93657C14.6642 7.02069 14.6616 7.15541 14.5765 7.2362L14.5765 7.23616L14.5738 7.23888L14.2963 7.51638L14.2003 7.61237L14.2862 7.71743C14.7401 8.27212 15.0136 8.93437 15.0856 9.64017L15.0994 9.77495H15.2348H15.6248C15.7312 9.77495 15.8226 9.85021 15.8458 9.95681L16.1422 9.91874C16.0885 8.62312 15.6217 7.54853 14.7988 6.72672C14.7937 6.72146 14.7885 6.71629 14.7832 6.7112Z" fill="white" stroke="white" stroke-width="0.3"/>
<path d="M16.1423 10.0769L15.8458 10.0431C15.8226 10.1497 15.7312 10.225 15.6248 10.225H15.2348H15.0994L15.0856 10.3597C15.0136 11.0655 14.7401 11.7278 14.2862 12.2825L14.2003 12.3875L14.2963 12.4835L14.5738 12.761L14.5737 12.7611L14.5765 12.7637C14.6615 12.8445 14.6642 12.9791 14.5845 13.0633C14.5811 13.0666 14.5777 13.07 14.5743 13.0734L14.7832 13.2887C14.7886 13.2836 14.7938 13.2783 14.799 13.273C15.6588 12.4139 16.1269 11.2792 16.1423 10.0769Z" fill="white" stroke="white" stroke-width="0.3"/>
<path d="M14.2831 7.71398L14.3872 7.84939L14.508 7.72859L14.7843 7.45233C14.9941 7.25141 14.9945 6.9154 14.7855 6.71393C14.5841 6.50496 14.2481 6.50538 14.0471 6.7152L13.7709 6.99146L13.6501 7.11225L13.7855 7.21641C13.8762 7.28621 13.9613 7.36396 14.0484 7.45109C14.1355 7.53821 14.2133 7.62324 14.2831 7.71398Z" fill="white" stroke="white" stroke-width="0.3"/>
<path d="M13.7855 12.7836L13.6501 12.8877L13.7709 13.0085L14.0459 13.2835C14.1451 13.3917 14.2837 13.4425 14.4169 13.4425C14.5497 13.4425 14.6878 13.3921 14.7869 13.2847C14.9945 13.0831 14.9936 12.7481 14.7843 12.5476L14.508 12.2714L14.3872 12.1506L14.2831 12.286C14.2133 12.3767 14.1355 12.4618 14.0484 12.5489C13.9613 12.636 13.8762 12.7138 13.7855 12.7836Z" fill="white" stroke="white" stroke-width="0.3"/>
<path d="M12.7236 11.7039L12.567 11.8045L12.6986 11.9361L13.7711 13.0086L13.8642 13.1017L13.9686 13.0214C14.0729 12.9412 14.1679 12.854 14.2607 12.7611C14.3536 12.6682 14.4409 12.5733 14.5211 12.469L14.6014 12.3646L14.5082 12.2715L13.4358 11.199L13.3087 11.0719L13.2064 11.2197C13.1445 11.309 13.068 11.3996 12.9836 11.484C12.896 11.5716 12.815 11.6451 12.7236 11.7039Z" fill="white" stroke="white" stroke-width="0.3"/>
<path d="M13.8674 9.59736L13.8445 9.475H13.72H13.375C13.0822 9.475 12.85 9.70716 12.85 10C12.85 10.2928 13.0822 10.525 13.375 10.525H13.72H13.8445L13.8674 10.4026C13.8922 10.2703 13.9 10.1328 13.9 10C13.9 9.86724 13.8922 9.72971 13.8674 9.59736Z" fill="white" stroke="white" stroke-width="0.3"/>
<path d="M13.7905 7.22033L13.8937 7.29275L13.9828 7.20363L14.2603 6.92613L14.2603 6.92617L14.263 6.92338C14.3437 6.83836 14.4784 6.83571 14.5625 6.91543C14.5659 6.91883 14.5693 6.92224 14.5727 6.92565L14.788 6.71675C14.7828 6.71134 14.7776 6.70606 14.7723 6.70092C13.9132 5.84113 12.7785 5.373 11.5761 5.35758L11.5424 5.65414C11.649 5.67732 11.7242 5.76871 11.7242 5.87507V6.26507V6.39085L11.8481 6.41277C12.6739 6.55893 13.1034 6.73788 13.7905 7.22033Z" fill="white" stroke="white" stroke-width="0.3"/>
<path d="M11.859 13.5857L11.7242 13.5995V13.735V14.125C11.7242 14.2313 11.649 14.3227 11.5424 14.3459L11.5761 14.6425C12.7722 14.6271 13.9014 14.1638 14.7588 13.3125C14.7698 13.3024 14.7805 13.2917 14.7907 13.2803L14.5727 13.0744C14.5661 13.081 14.5595 13.0876 14.553 13.0941C14.5178 13.1248 14.4693 13.1425 14.4167 13.1425C14.3563 13.1425 14.3013 13.1192 14.2657 13.0796L14.2659 13.0795L14.2603 13.0739L13.9828 12.7964L13.8868 12.7004L13.7817 12.7864C13.227 13.2402 12.5648 13.5137 11.859 13.5857Z" fill="white" stroke="white" stroke-width="0.3"/>
<path d="M14.5082 7.7286L14.6014 7.63547L14.5211 7.53108C14.4409 7.42682 14.3536 7.33184 14.2607 7.23897C14.1679 7.14609 14.0729 7.05884 13.9686 6.97864L13.8642 6.89834L13.7711 6.99147L12.6986 8.06397L12.5734 8.18918L12.7175 8.29209C12.8165 8.36279 12.9 8.43252 12.9836 8.5161C13.068 8.60047 13.1445 8.69112 13.2064 8.78042L13.3087 8.92819L13.4358 8.8011L14.5082 7.7286Z" fill="white" stroke="white" stroke-width="0.3"/>
<path d="M13.8671 10.4013L13.8985 10.225H13.7195H13.3745C13.2473 10.225 13.1495 10.1272 13.1495 10H12.9995H12.8495C12.8495 10.3624 12.7098 10.698 12.4622 10.9549C12.46 10.9572 12.4579 10.9594 12.4557 10.9617L12.6719 11.1696C12.6735 11.168 12.6751 11.1663 12.6767 11.1647C12.7605 11.0806 12.8985 11.0818 12.9807 11.1683L12.9807 11.1683L12.9834 11.1711L13.2234 11.4111L13.3473 11.535L13.4506 11.3934C13.6677 11.096 13.8035 10.7593 13.8671 10.4013Z" fill="white" stroke="white" stroke-width="0.3"/>
<path d="M13.4506 8.60653L13.3473 8.46496L13.2234 8.58888L12.9834 8.82888C12.935 8.87724 12.8826 8.89745 12.827 8.89745C12.7716 8.89745 12.7209 8.87793 12.6854 8.84427C12.6809 8.83959 12.6764 8.83494 12.6719 8.8303L12.453 9.03529C12.4592 9.0422 12.4656 9.04889 12.4721 9.05534C12.7135 9.31094 12.8495 9.64235 12.8495 9.99995H12.9995H13.1495C13.1495 9.87279 13.2473 9.77495 13.3745 9.77495H13.7195H13.8985L13.8671 9.59869C13.8035 9.24063 13.6677 8.90396 13.4506 8.60653Z" fill="white" stroke="white" stroke-width="0.3"/>
<path d="M13.4367 8.80111L13.5252 8.71259L13.4539 8.60967C13.3808 8.50396 13.2923 8.39961 13.1967 8.30398C13.1003 8.20756 13.0038 8.12729 12.8928 8.04798L12.7894 7.97412L12.6996 8.06398L12.4608 8.30274C12.2515 8.50321 12.2506 8.83815 12.4581 9.03977C12.5572 9.1472 12.6953 9.19755 12.8281 9.19755C12.9675 9.19755 13.095 9.14276 13.1967 9.04111L13.4367 8.80111Z" fill="white" stroke="white" stroke-width="0.3"/>
<path d="M13.4539 11.3904L13.5252 11.2875L13.4367 11.1989L13.1979 10.9602C12.997 10.7504 12.661 10.75 12.4595 10.9589C12.2506 11.1604 12.251 11.4964 12.4608 11.6973L12.6996 11.9361L12.785 12.0216L12.8867 11.9562C13.0053 11.8799 13.1043 11.7884 13.1967 11.6961C13.2923 11.6004 13.3808 11.4961 13.4539 11.3904Z" fill="white" stroke="white" stroke-width="0.3"/>
<path d="M11.5 11.3349H11.35V11.4849V11.4999V11.6499H11.5C11.6272 11.6499 11.725 11.7478 11.725 11.8749V12.2199V12.3997L11.9018 12.3675C12.2513 12.304 12.5955 12.1685 12.8934 11.9511L13.035 11.8478L12.9111 11.7239L12.6711 11.4839L12.6711 11.4838L12.6683 11.4812C12.583 11.4002 12.5806 11.265 12.6611 11.1809C12.6644 11.1776 12.6678 11.1743 12.6711 11.171L12.4617 10.9562C12.4572 10.9605 12.4528 10.9648 12.4485 10.9692C12.2032 11.2081 11.8509 11.3349 11.5 11.3349Z" fill="white" stroke="white" stroke-width="0.3"/>
<path d="M12.4617 9.04381L12.6711 8.82899C12.6677 8.82564 12.6644 8.82231 12.661 8.819C12.5806 8.73492 12.5831 8.59978 12.6683 8.51881L12.6683 8.51884L12.6711 8.51612L12.9111 8.27612L13.038 8.14922L12.8906 8.04685C12.5995 7.84472 12.2549 7.71736 11.8981 7.66184L11.725 7.63492V7.81006V8.12506C11.725 8.25222 11.6272 8.35006 11.5 8.35006V8.50006V8.65006C11.8539 8.65006 12.2004 8.78859 12.4482 9.03047C12.4526 9.03498 12.4571 9.03943 12.4617 9.04381Z" fill="white" stroke="white" stroke-width="0.3"/>
<path d="M11.1338 13.5852L10.975 13.5759V13.735V14.125C10.975 14.3762 11.1513 14.5833 11.3864 14.6375C11.4296 14.6502 11.4704 14.6501 11.4947 14.65C11.4965 14.65 11.4983 14.65 11.5 14.65C11.5017 14.65 11.5034 14.65 11.5053 14.65C11.5295 14.6501 11.5704 14.6502 11.6136 14.6375C11.8487 14.5833 12.025 14.3762 12.025 14.125V13.735V13.5759L11.8662 13.5852C11.8598 13.5856 11.8535 13.586 11.8473 13.5864C11.7262 13.5935 11.6162 13.6 11.5 13.6C11.3838 13.6 11.2738 13.5935 11.1527 13.5864C11.1464 13.586 11.1401 13.5856 11.1338 13.5852Z" fill="white" stroke="white" stroke-width="0.3"/>
<path d="M11.9011 12.3677L12.025 12.3458V12.22V11.875C12.025 11.5822 11.7928 11.35 11.5 11.35C11.2072 11.35 10.975 11.5822 10.975 11.875V12.22V12.3458L11.0989 12.3677C11.2372 12.3921 11.3663 12.4 11.5 12.4C11.6337 12.4 11.7628 12.3921 11.9011 12.3677Z" fill="white" stroke="white" stroke-width="0.3"/>
<path d="M11.8525 7.9583L12.025 7.98444V7.81V6.265V6.12088L11.881 6.11512L11.506 6.10012L11.506 6.1H11.5C11.3747 6.1 11.2565 6.10697 11.1374 6.11401C11.1303 6.11443 11.1233 6.11484 11.1162 6.11526L10.975 6.12356V6.265V7.81V7.98444L11.1475 7.9583C11.3801 7.92306 11.6199 7.92306 11.8525 7.9583Z" fill="white" stroke="white" stroke-width="0.3"/>
<path d="M11.1025 7.66168L10.975 7.681V7.80999V8.12499C10.975 8.41783 11.2072 8.64999 11.5 8.64999C11.7928 8.64999 12.025 8.41783 12.025 8.12499V7.80999V7.681L11.8975 7.66168C11.6351 7.62192 11.3649 7.62192 11.1025 7.66168Z" fill="white" stroke="white" stroke-width="0.3"/>
<path d="M11.869 6.41489L12.025 6.42113V6.26501V5.875C12.025 5.62377 11.8487 5.41671 11.6136 5.36244C11.5704 5.34975 11.5295 5.3499 11.5053 5.34999C11.5034 5.34999 11.5017 5.35 11.5 5.35C11.4983 5.35 11.4965 5.34999 11.4947 5.34999C11.4704 5.3499 11.4296 5.34975 11.3864 5.36244C11.1513 5.41671 10.975 5.62377 10.975 5.875V6.26501V6.42409L11.1338 6.41475C11.1401 6.41437 11.1464 6.414 11.1527 6.41363C11.2728 6.40655 11.3819 6.40012 11.497 6.40001L11.869 6.41489Z" fill="white" stroke="white" stroke-width="0.3"/>
<path d="M10.975 13.735V13.8764L11.1162 13.8847C11.1233 13.8851 11.1303 13.8856 11.1374 13.886C11.2565 13.893 11.3747 13.9 11.5 13.9C11.6253 13.9 11.7435 13.893 11.8626 13.886C11.8697 13.8856 11.8767 13.8851 11.8838 13.8847L12.025 13.8764V13.735V12.22V12.0412L11.8489 12.0723C11.7322 12.0929 11.6213 12.1 11.5 12.1C11.3787 12.1 11.2678 12.0929 11.1511 12.0723L10.975 12.0412V12.22V13.735Z" fill="white" stroke="white" stroke-width="0.3"/>
<path d="M10.3292 8.82899L10.5386 9.04381C10.5432 9.03943 10.5477 9.03498 10.5522 9.03047C10.7999 8.78859 11.1465 8.65006 11.5003 8.65006V8.50006V8.35006C11.3732 8.35006 11.2753 8.25222 11.2753 8.12506V7.81006V7.63492L11.1023 7.66184C10.7454 7.71736 10.4008 7.84472 10.1098 8.04685L9.96234 8.14922L10.0892 8.27612L10.3292 8.51612L10.3292 8.51616L10.332 8.51881C10.4172 8.59978 10.4197 8.73492 10.3393 8.81899C10.336 8.82231 10.3326 8.82564 10.3292 8.82899Z" fill="white" stroke="white" stroke-width="0.3"/>
<path d="M10.5386 10.9562L10.3292 11.171C10.3326 11.1743 10.3359 11.1776 10.3392 11.1809C10.4197 11.265 10.4173 11.4002 10.332 11.4812L10.332 11.4812L10.3292 11.4839L10.0892 11.7239L9.96532 11.8478L10.1069 11.9511C10.4048 12.1685 10.749 12.304 11.0985 12.3675L11.2753 12.3997V12.2199V11.8749C11.2753 11.7478 11.3732 11.6499 11.5003 11.6499H11.6503V11.4999V11.4849V11.3349H11.5003C11.1494 11.3349 10.7971 11.2081 10.5519 10.9692C10.5475 10.9648 10.5431 10.9605 10.5386 10.9562Z" fill="white" stroke="white" stroke-width="0.3"/>
<path d="M9.54659 8.60967L9.47534 8.71259L9.56386 8.80111L9.80133 9.03859C9.90053 9.14683 10.0391 9.19755 10.1724 9.19755C10.3052 9.19755 10.4433 9.1472 10.5424 9.03977C10.75 8.83815 10.7491 8.50321 10.5397 8.30274L10.301 8.06398L10.2111 7.97413L10.1077 8.04798C9.99671 8.12729 9.90027 8.20756 9.80385 8.30398C9.70823 8.39961 9.61977 8.50396 9.54659 8.60967Z" fill="white" stroke="white" stroke-width="0.3"/>
<path d="M10.1138 11.9562L10.2155 12.0216L10.301 11.9361L10.5397 11.6973C10.7496 11.4964 10.75 11.1604 10.541 10.9589C10.3395 10.75 10.0035 10.7504 9.80261 10.9602L9.56386 11.1989L9.47534 11.2875L9.54659 11.3904C9.61977 11.4961 9.70823 11.6004 9.80386 11.6961C9.89622 11.7884 9.9952 11.8799 10.1138 11.9562Z" fill="white" stroke="white" stroke-width="0.3"/>
<path d="M10.3012 11.9361L10.4328 11.8045L10.2763 11.7039C10.1849 11.6451 10.1039 11.5716 10.0162 11.484C9.93185 11.3996 9.8553 11.309 9.79349 11.2197L9.69118 11.0719L9.56409 11.199L8.49159 12.2715L8.39846 12.3646L8.47876 12.469C8.55896 12.5733 8.64622 12.6682 8.73909 12.7611C8.83196 12.854 8.92694 12.9412 9.0312 13.0214L9.13559 13.1017L9.22872 13.0086L10.3012 11.9361Z" fill="white" stroke="white" stroke-width="0.3"/>
<path d="M9.13257 10.4026L9.15551 10.525H9.28H9.625C9.91784 10.525 10.15 10.2928 10.15 10C10.15 9.70716 9.91784 9.475 9.625 9.475H9.28H9.15551L9.13257 9.59736C9.10775 9.72971 9.1 9.86724 9.1 10C9.1 10.1328 9.10775 10.2703 9.13257 10.4026Z" fill="white" stroke="white" stroke-width="0.3"/>
<path d="M9.56409 8.8011L9.69118 8.92819L9.79349 8.78042C9.8553 8.69112 9.93185 8.60047 10.0162 8.5161C10.0998 8.43252 10.1834 8.36279 10.2823 8.29209L10.4264 8.18918L10.3012 8.06397L9.22872 6.99147L9.13559 6.89834L9.0312 6.97864C8.92694 7.05884 8.83196 7.14609 8.73909 7.23897C8.64622 7.33184 8.55896 7.42682 8.47876 7.53108L8.39846 7.63547L8.49159 7.7286L9.56409 8.8011Z" fill="white" stroke="white" stroke-width="0.3"/>
<path d="M8.21156 6.71675L8.42685 6.92565C8.43024 6.92224 8.43363 6.91883 8.43702 6.91542C8.52115 6.83571 8.6558 6.83836 8.73656 6.92338L8.73652 6.92341L8.73924 6.92613L9.01674 7.20363L9.11273 7.29962L9.21779 7.21366C9.77248 6.75982 10.4347 6.48631 11.1405 6.41429L11.2753 6.40054V6.26507V5.87507C11.2753 5.76871 11.3506 5.67732 11.4572 5.65414L11.4234 5.35758C10.221 5.373 9.08634 5.84113 8.22726 6.70092C8.22194 6.70606 8.21671 6.71134 8.21156 6.71675Z" fill="white" stroke="white" stroke-width="0.3"/>
<path d="M9.13161 9.59869L9.10028 9.77495H9.2793H9.6243C9.75145 9.77495 9.8493 9.87279 9.8493 9.99995H9.9993H10.1493C10.1493 9.64236 10.2852 9.31095 10.5267 9.05535C10.5332 9.04889 10.5396 9.04221 10.5458 9.03529L10.3268 8.8303C10.3223 8.83494 10.3178 8.83959 10.3134 8.84427C10.2779 8.87793 10.2271 8.89745 10.1718 8.89745C10.1114 8.89745 10.0564 8.87416 10.0208 8.8346L10.0209 8.83446L10.0154 8.82888L9.77536 8.58888L9.65144 8.46495L9.54813 8.60653C9.33108 8.90396 9.19527 9.24063 9.13161 9.59869Z" fill="white" stroke="white" stroke-width="0.3"/>
<path d="M9.54813 11.3934L9.65144 11.535L9.77536 11.4111L10.0154 11.1711L10.0154 11.1711L10.018 11.1683C10.1002 11.0818 10.2382 11.0806 10.322 11.1647C10.3236 11.1663 10.3252 11.168 10.3268 11.1696L10.543 10.9617C10.5409 10.9594 10.5387 10.9572 10.5365 10.9549C10.2889 10.698 10.1493 10.3624 10.1493 10H9.9993H9.8493C9.8493 10.1272 9.75145 10.225 9.6243 10.225H9.2793H9.10028L9.13161 10.4013C9.19527 10.7593 9.33108 11.096 9.54813 11.3934Z" fill="white" stroke="white" stroke-width="0.3"/>
<path d="M8.73924 13.0739L8.7391 13.0738L8.73382 13.0796C8.69821 13.1192 8.64323 13.1425 8.58281 13.1425C8.53021 13.1425 8.48173 13.1248 8.44657 13.0941C8.43998 13.0876 8.43341 13.081 8.42685 13.0744L8.20882 13.2803C8.21903 13.2917 8.22968 13.3024 8.24071 13.3125C9.09816 14.1638 10.2273 14.6271 11.4234 14.6425L11.4572 14.3459C11.3506 14.3227 11.2753 14.2313 11.2753 14.125V13.735V13.5995L11.1405 13.5857C10.4347 13.5137 9.77248 13.2402 9.21779 12.7864L9.11273 12.7004L9.01674 12.7964L8.73924 13.0739Z" fill="white" stroke="white" stroke-width="0.3"/>
<path d="M9.28 10.525H9.46073L9.42743 10.3474C9.40724 10.2397 9.4 10.1222 9.4 10C9.4 9.87777 9.40724 9.76029 9.42743 9.65264L9.46073 9.475H9.28H7.765H7.62356L7.61526 9.61619C7.61484 9.62327 7.61443 9.63034 7.61401 9.63741C7.60697 9.75654 7.6 9.87467 7.6 10C7.6 10.1253 7.60697 10.2435 7.61401 10.3626C7.61443 10.3697 7.61484 10.3767 7.61526 10.3838L7.62356 10.525H7.765H9.28Z" fill="white" stroke="white" stroke-width="0.3"/>
<path d="M9.21349 7.21641L9.3489 7.11225L9.2281 6.99145L8.95184 6.7152C8.75092 6.50538 8.41491 6.50496 8.21344 6.71393C8.00447 6.9154 8.0049 7.25141 8.21471 7.45233L8.49097 7.72859L8.61177 7.84939L8.71593 7.71398C8.78573 7.62324 8.86347 7.53821 8.9506 7.45109C9.03773 7.36396 9.12275 7.28621 9.21349 7.21641Z" fill="white" stroke="white" stroke-width="0.3"/>
<path d="M9.2281 13.0085L9.3489 12.8877L9.21349 12.7836C9.12275 12.7138 9.03773 12.636 8.9506 12.5489C8.86347 12.4618 8.78573 12.3767 8.71593 12.286L8.61177 12.1506L8.49097 12.2714L8.21471 12.5476C8.00537 12.7481 8.00448 13.0831 8.21203 13.2847C8.31116 13.3921 8.44924 13.4425 8.58203 13.4425C8.71531 13.4425 8.85392 13.3917 8.95313 13.2835L9.2281 13.0085Z" fill="white" stroke="white" stroke-width="0.3"/>
<path d="M8.4259 6.92649L8.217 6.7112C8.21158 6.71634 8.20631 6.72157 8.20117 6.72689C7.34137 7.58597 6.87324 8.72066 6.85782 9.92302L7.15439 9.95681C7.17756 9.85021 7.26896 9.77495 7.37531 9.77495H7.76531H7.90078L7.91454 9.64017C7.98656 8.93437 8.26007 8.27212 8.7139 7.71743L8.79986 7.61237L8.70387 7.51638L8.42638 7.23888L8.42641 7.23885L8.42362 7.2362C8.33861 7.15543 8.33596 7.02078 8.41567 6.93666C8.41907 6.93326 8.42248 6.92987 8.4259 6.92649Z" fill="white" stroke="white" stroke-width="0.3"/>
<path d="M8.42362 12.7637L8.42366 12.7637L8.42638 12.761L8.70388 12.4835L8.79986 12.3875L8.7139 12.2825C8.26007 11.7278 7.98656 11.0655 7.91454 10.3597L7.90078 10.225H7.76531H7.37531C7.26896 10.225 7.17756 10.1497 7.15439 10.0431L6.85782 10.0769C6.87324 11.2792 7.34137 12.4139 8.20117 13.273C8.20631 13.2783 8.21158 13.2836 8.217 13.2887L8.4259 13.0734C8.42248 13.07 8.41907 13.0666 8.41567 13.0633C8.33596 12.9791 8.33861 12.8445 8.42362 12.7637Z" fill="white" stroke="white" stroke-width="0.3"/>
<path d="M7.91474 9.63381L7.92408 9.475H7.765H7.375C7.12362 9.475 6.91648 9.65154 6.86235 9.88676C6.84961 9.93112 6.84988 9.97818 6.84999 9.99634C6.84999 9.99774 6.85 9.99896 6.85 10C6.85 10.001 6.84999 10.0023 6.84999 10.0037C6.84988 10.0218 6.84961 10.0689 6.86235 10.1132C6.91648 10.3485 7.12362 10.525 7.375 10.525H7.765H7.92408L7.91474 10.3662C7.91437 10.3599 7.914 10.3536 7.91363 10.3473C7.90648 10.2262 7.9 10.1162 7.9 10C7.9 9.88379 7.90648 9.77383 7.91363 9.65272C7.914 9.64645 7.91437 9.64014 7.91474 9.63381Z" fill="white" stroke="white" stroke-width="0.3"/>
<path d="M3.25 12.1H3.1V12.25V12.625C3.1 12.7522 3.00216 12.85 2.875 12.85V13V13.15H3.85V14.35H2.875V14.5V14.65C3.00216 14.65 3.1 14.7478 3.1 14.875V15.25V15.4H3.25H4.375C4.66784 15.4 4.9 15.1678 4.9 14.875V12.625C4.9 12.3322 4.66784 12.1 4.375 12.1H3.25Z" fill="white" stroke="white" stroke-width="0.3"/>
<path d="M3.25 4.6H3.1V4.75V5.125C3.1 5.25216 3.00216 5.35 2.875 5.35V5.5V5.65H3.85V6.84999H2.875V6.99999V7.14999C3.00216 7.14999 3.1 7.24784 3.1 7.37499V7.74999V7.89999H3.25H4.375C4.66784 7.89999 4.9 7.66784 4.9 7.37499V5.125C4.9 4.83216 4.66784 4.6 4.375 4.6H3.25Z" fill="white" stroke="white" stroke-width="0.3"/>
<path d="M3.25 15.4H3.4V15.25V14.875C3.4 14.5822 3.16784 14.35 2.875 14.35C2.58216 14.35 2.35 14.5822 2.35 14.875V15.25V15.4H2.5H3.25Z" fill="white" stroke="white" stroke-width="0.3"/>
<path d="M3.4 12.25V12.1H3.25H2.5H2.35V12.25V12.625C2.35 12.9178 2.58216 13.15 2.875 13.15C3.16784 13.15 3.4 12.9178 3.4 12.625V12.25Z" fill="white" stroke="white" stroke-width="0.3"/>
<path d="M2.5 7.6H2.35V7.75V12.25V12.4H2.5H3.25H3.4V12.25V7.75V7.6H3.25H2.5Z" fill="white" stroke="white" stroke-width="0.3"/>
<path d="M3.25 7.90001H3.4V7.75001V7.375C3.4 7.08216 3.16784 6.85 2.875 6.85C2.58216 6.85 2.35 7.08216 2.35 7.375V7.75001V7.90001H2.5H3.25Z" fill="white" stroke="white" stroke-width="0.3"/>
<path d="M3.4 4.75V4.6H3.25H2.5H2.35V4.75V5.125C2.35 5.41784 2.58216 5.65 2.875 5.65C3.16784 5.65 3.4 5.41784 3.4 5.125V4.75Z" fill="white" stroke="white" stroke-width="0.3"/>
<path d="M3.25 4.9H3.4V4.75V2.875C3.4 2.33534 3.83534 1.9 4.375 1.9H17.125C17.6647 1.9 18.1 2.33534 18.1 2.875V17.125C18.1 17.6647 17.6647 18.1 17.125 18.1H4.375C3.83534 18.1 3.4 17.6647 3.4 17.125V15.25V15.1H3.25H2.5H2.35V15.25V17.125C2.35 18.2428 3.25716 19.15 4.375 19.15H17.125C18.2429 19.15 19.15 18.2428 19.15 17.125V2.875C19.15 1.75716 18.2429 0.85 17.125 0.85H4.375C3.25716 0.85 2.35 1.75716 2.35 2.875V4.75V4.9H2.5H3.25Z" fill="white" stroke="white" stroke-width="0.3"/>
<path d="M2.5 7.89999H2.65V7.74999V7.37499C2.65 7.24784 2.74784 7.14999 2.875 7.14999V6.99999V6.84999H1.9V5.65H2.875V5.5V5.35C2.74784 5.35 2.65 5.25216 2.65 5.125V4.75V4.6H2.5H1.375C1.08216 4.6 0.85 4.83216 0.85 5.125V7.37499C0.85 7.66784 1.08216 7.89999 1.375 7.89999H2.5Z" fill="white" stroke="white" stroke-width="0.3"/>
<path d="M2.875 13V12.85C2.74784 12.85 2.65 12.7522 2.65 12.625V12.25V12.1H2.5H1.375C1.08216 12.1 0.85 12.3322 0.85 12.625V14.875C0.85 15.1678 1.08216 15.4 1.375 15.4H2.5H2.65V15.25V14.875C2.65 14.7478 2.74784 14.65 2.875 14.65V14.5V14.35H1.9V13.15H2.875V13Z" fill="white" stroke="white" stroke-width="0.3"/>
</svg>
