<svg width="20" height="20" viewBox="0 0 20 20" fill="none" xmlns="http://www.w3.org/2000/svg">
<path d="M15.0851 10.3662L15.0758 10.525H15.2349H15.6249C15.8761 10.525 16.0832 10.3487 16.1374 10.1136C16.1501 10.0704 16.15 10.0296 16.1499 10.0053C16.1499 10.0034 16.1499 10.0017 16.1499 10C16.1499 9.99833 16.1499 9.99656 16.1499 9.99468C16.15 9.97045 16.1501 9.92957 16.1374 9.88637C16.0832 9.65134 15.8761 9.475 15.6249 9.475H15.2349H15.0758L15.0851 9.63381C15.0855 9.64014 15.0859 9.64645 15.0862 9.65272C15.0934 9.77383 15.0999 9.88379 15.0999 10C15.0999 10.1162 15.0934 10.2262 15.0862 10.3473C15.0859 10.3536 15.0855 10.3599 15.0851 10.3662Z" fill="#1D2F3B" stroke="#1D2F3B" stroke-width="0.3"/>
<path d="M13.7197 9.475H13.539L13.5723 9.65264C13.5925 9.76029 13.5997 9.87777 13.5997 10C13.5997 10.1222 13.5925 10.2397 13.5723 10.3474L13.539 10.525H13.7197H15.2347H15.3762L15.3845 10.3838C15.3849 10.3767 15.3853 10.3697 15.3857 10.3626C15.3928 10.2435 15.3997 10.1253 15.3997 10C15.3997 9.87466 15.3928 9.75653 15.3857 9.6374C15.3853 9.63034 15.3849 9.62327 15.3845 9.61619L15.3762 9.475H15.2347H13.7197Z" fill="#1D2F3B" stroke="#1D2F3B" stroke-width="0.3"/>
<path d="M14.7832 6.7112L14.5743 6.92651C14.5777 6.92986 14.581 6.93321 14.5844 6.93657C14.6642 7.02069 14.6616 7.15541 14.5765 7.2362L14.5765 7.23616L14.5738 7.23888L14.2963 7.51638L14.2003 7.61237L14.2862 7.71743C14.7401 8.27212 15.0136 8.93437 15.0856 9.64017L15.0994 9.77495H15.2348H15.6248C15.7312 9.77495 15.8226 9.85021 15.8458 9.95681L16.1422 9.91874C16.0885 8.62312 15.6217 7.54853 14.7988 6.72672C14.7937 6.72146 14.7885 6.71629 14.7832 6.7112Z" fill="#1D2F3B" stroke="#1D2F3B" stroke-width="0.3"/>
<path d="M16.1423 10.0769L15.8458 10.0431C15.8226 10.1497 15.7312 10.225 15.6248 10.225H15.2348H15.0994L15.0856 10.3597C15.0136 11.0655 14.7401 11.7278 14.2862 12.2825L14.2003 12.3875L14.2963 12.4835L14.5738 12.761L14.5737 12.7611L14.5765 12.7637C14.6615 12.8445 14.6642 12.9791 14.5845 13.0633C14.5811 13.0666 14.5777 13.07 14.5743 13.0734L14.7832 13.2887C14.7886 13.2836 14.7938 13.2783 14.799 13.273C15.6588 12.4139 16.1269 11.2792 16.1423 10.0769Z" fill="#1D2F3B" stroke="#1D2F3B" stroke-width="0.3"/>
<path d="M14.2835 7.71398L14.3877 7.84939L14.5085 7.72859L14.7848 7.45233C14.9946 7.25141 14.995 6.9154 14.786 6.71393C14.5846 6.50496 14.2485 6.50538 14.0476 6.7152L13.7714 6.99146L13.6506 7.11225L13.786 7.21641C13.8767 7.28621 13.9617 7.36396 14.0489 7.45109C14.136 7.53821 14.2137 7.62324 14.2835 7.71398Z" fill="#1D2F3B" stroke="#1D2F3B" stroke-width="0.3"/>
<path d="M13.786 12.7836L13.6506 12.8877L13.7714 13.0085L14.0463 13.2835C14.1455 13.3917 14.2842 13.4425 14.4174 13.4425C14.5502 13.4425 14.6883 13.3921 14.7874 13.2847C14.995 13.0831 14.9941 12.7481 14.7848 12.5476L14.5085 12.2714L14.3877 12.1506L14.2835 12.286C14.2137 12.3767 14.136 12.4618 14.0489 12.5489C13.9617 12.636 13.8767 12.7138 13.786 12.7836Z" fill="#1D2F3B" stroke="#1D2F3B" stroke-width="0.3"/>
<path d="M12.7241 11.7039L12.5675 11.8045L12.6991 11.9361L13.7716 13.0086L13.8647 13.1017L13.9691 13.0214C14.0734 12.9412 14.1684 12.854 14.2612 12.7611C14.3541 12.6682 14.4414 12.5733 14.5216 12.469L14.6019 12.3646L14.5087 12.2715L13.4362 11.199L13.3092 11.0719L13.2068 11.2197C13.145 11.309 13.0685 11.3996 12.9841 11.484C12.8965 11.5716 12.8155 11.6451 12.7241 11.7039Z" fill="#1D2F3B" stroke="#1D2F3B" stroke-width="0.3"/>
<path d="M13.8674 9.59736L13.8445 9.475H13.72H13.375C13.0822 9.475 12.85 9.70716 12.85 10C12.85 10.2928 13.0822 10.525 13.375 10.525H13.72H13.8445L13.8674 10.4026C13.8922 10.2703 13.9 10.1328 13.9 10C13.9 9.86724 13.8922 9.72971 13.8674 9.59736Z" fill="#1D2F3B" stroke="#1D2F3B" stroke-width="0.3"/>
<path d="M13.7915 7.22033L13.8946 7.29275L13.9838 7.20363L14.2612 6.92613L14.2613 6.92617L14.2639 6.92338C14.3447 6.83836 14.4793 6.83571 14.5635 6.91543C14.5669 6.91883 14.5703 6.92224 14.5736 6.92565L14.7889 6.71675C14.7838 6.71134 14.7786 6.70606 14.7732 6.70092C13.9142 5.84113 12.7795 5.373 11.5771 5.35758L11.5433 5.65414C11.6499 5.67732 11.7252 5.76871 11.7252 5.87507V6.26507V6.39085L11.8491 6.41277C12.6749 6.55893 13.1044 6.73788 13.7915 7.22033Z" fill="#1D2F3B" stroke="#1D2F3B" stroke-width="0.3"/>
<path d="M11.86 13.5857L11.7252 13.5995V13.735V14.125C11.7252 14.2313 11.6499 14.3227 11.5433 14.3459L11.5771 14.6425C12.7732 14.6271 13.9023 14.1638 14.7598 13.3125C14.7708 13.3024 14.7815 13.2917 14.7917 13.2803L14.5736 13.0744C14.5671 13.081 14.5605 13.0876 14.5539 13.0941C14.5188 13.1248 14.4703 13.1425 14.4177 13.1425C14.3573 13.1425 14.3023 13.1192 14.2667 13.0796L14.2668 13.0795L14.2613 13.0739L13.9838 12.7964L13.8878 12.7004L13.7827 12.7864C13.228 13.2402 12.5658 13.5137 11.86 13.5857Z" fill="#1D2F3B" stroke="#1D2F3B" stroke-width="0.3"/>
<path d="M14.5087 7.7286L14.6019 7.63547L14.5216 7.53108C14.4414 7.42682 14.3541 7.33184 14.2612 7.23897C14.1684 7.14609 14.0734 7.05884 13.9691 6.97864L13.8647 6.89834L13.7716 6.99147L12.6991 8.06397L12.5739 8.18918L12.718 8.29209C12.817 8.36279 12.9005 8.43252 12.9841 8.5161C13.0685 8.60047 13.145 8.69112 13.2068 8.78042L13.3092 8.92819L13.4362 8.8011L14.5087 7.7286Z" fill="#1D2F3B" stroke="#1D2F3B" stroke-width="0.3"/>
<path d="M13.8676 10.4013L13.899 10.225H13.72H13.3749C13.2478 10.225 13.1499 10.1272 13.1499 10H12.9999H12.8499C12.8499 10.3624 12.7103 10.698 12.4627 10.9549C12.4605 10.9572 12.4584 10.9594 12.4562 10.9617L12.6724 11.1696C12.674 11.168 12.6756 11.1663 12.6772 11.1647C12.761 11.0806 12.899 11.0818 12.9812 11.1683L12.9812 11.1683L12.9839 11.1711L13.2239 11.4111L13.3478 11.535L13.4511 11.3934C13.6682 11.096 13.804 10.7593 13.8676 10.4013Z" fill="#1D2F3B" stroke="#1D2F3B" stroke-width="0.3"/>
<path d="M13.4511 8.60653L13.3478 8.46496L13.2239 8.58888L12.9839 8.82888C12.9355 8.87724 12.8831 8.89745 12.8274 8.89745C12.7721 8.89745 12.7214 8.87793 12.6859 8.84427C12.6814 8.83959 12.6769 8.83494 12.6724 8.8303L12.4534 9.03529C12.4597 9.0422 12.466 9.04889 12.4726 9.05534C12.714 9.31094 12.8499 9.64235 12.8499 9.99995H12.9999H13.1499C13.1499 9.87279 13.2478 9.77495 13.3749 9.77495H13.72H13.899L13.8676 9.59869C13.804 9.24063 13.6682 8.90396 13.4511 8.60653Z" fill="#1D2F3B" stroke="#1D2F3B" stroke-width="0.3"/>
<path d="M13.4362 8.80111L13.5247 8.71259L13.4535 8.60967C13.3803 8.50396 13.2918 8.39961 13.1962 8.30398C13.0998 8.20756 13.0033 8.12729 12.8923 8.04798L12.7889 7.97412L12.6991 8.06398L12.4603 8.30274C12.251 8.50321 12.2501 8.83815 12.4576 9.03977C12.5568 9.1472 12.6948 9.19755 12.8276 9.19755C12.967 9.19755 13.0946 9.14276 13.1962 9.04111L13.4362 8.80111Z" fill="#1D2F3B" stroke="#1D2F3B" stroke-width="0.3"/>
<path d="M13.4535 11.3904L13.5247 11.2875L13.4362 11.1989L13.1974 10.9602C12.9965 10.7504 12.6605 10.75 12.459 10.9589C12.2501 11.1604 12.2505 11.4964 12.4603 11.6973L12.6991 11.9361L12.7846 12.0216L12.8862 11.9562C13.0049 11.8799 13.1038 11.7884 13.1962 11.6961C13.2918 11.6004 13.3803 11.4961 13.4535 11.3904Z" fill="#1D2F3B" stroke="#1D2F3B" stroke-width="0.3"/>
<path d="M11.5 11.3349H11.35V11.4849V11.4999V11.6499H11.5C11.6272 11.6499 11.725 11.7478 11.725 11.8749V12.2199V12.3997L11.9018 12.3675C12.2513 12.304 12.5955 12.1685 12.8934 11.9511L13.035 11.8478L12.9111 11.7239L12.6711 11.4839L12.6711 11.4838L12.6683 11.4812C12.583 11.4002 12.5806 11.265 12.6611 11.1809C12.6644 11.1776 12.6678 11.1743 12.6711 11.171L12.4617 10.9562C12.4572 10.9605 12.4528 10.9648 12.4485 10.9692C12.2032 11.2081 11.8509 11.3349 11.5 11.3349Z" fill="#1D2F3B" stroke="#1D2F3B" stroke-width="0.3"/>
<path d="M12.4617 9.04381L12.6711 8.82899C12.6677 8.82564 12.6644 8.82231 12.661 8.819C12.5806 8.73492 12.5831 8.59978 12.6683 8.51881L12.6683 8.51884L12.6711 8.51612L12.9111 8.27612L13.038 8.14922L12.8906 8.04685C12.5995 7.84472 12.2549 7.71736 11.8981 7.66184L11.725 7.63492V7.81006V8.12506C11.725 8.25222 11.6272 8.35006 11.5 8.35006V8.50006V8.65006C11.8539 8.65006 12.2004 8.78859 12.4482 9.03047C12.4526 9.03498 12.4571 9.03943 12.4617 9.04381Z" fill="#1D2F3B" stroke="#1D2F3B" stroke-width="0.3"/>
<path d="M11.1338 13.5852L10.975 13.5759V13.735V14.125C10.975 14.3762 11.1513 14.5833 11.3864 14.6375C11.4296 14.6502 11.4704 14.6501 11.4947 14.65C11.4965 14.65 11.4983 14.65 11.5 14.65C11.5017 14.65 11.5034 14.65 11.5053 14.65C11.5295 14.6501 11.5704 14.6502 11.6136 14.6375C11.8487 14.5833 12.025 14.3762 12.025 14.125V13.735V13.5759L11.8662 13.5852C11.8598 13.5856 11.8535 13.586 11.8473 13.5864C11.7262 13.5935 11.6162 13.6 11.5 13.6C11.3838 13.6 11.2738 13.5935 11.1527 13.5864C11.1464 13.586 11.1401 13.5856 11.1338 13.5852Z" fill="#1D2F3B" stroke="#1D2F3B" stroke-width="0.3"/>
<path d="M11.9011 12.3677L12.025 12.3458V12.22V11.875C12.025 11.5822 11.7928 11.35 11.5 11.35C11.2072 11.35 10.975 11.5822 10.975 11.875V12.22V12.3458L11.0989 12.3677C11.2372 12.3921 11.3663 12.4 11.5 12.4C11.6337 12.4 11.7628 12.3921 11.9011 12.3677Z" fill="#1D2F3B" stroke="#1D2F3B" stroke-width="0.3"/>
<path d="M11.8525 7.9583L12.025 7.98444V7.81V6.265V6.12088L11.881 6.11512L11.506 6.10012L11.506 6.1H11.5C11.3747 6.1 11.2565 6.10697 11.1374 6.11401C11.1303 6.11443 11.1233 6.11484 11.1162 6.11526L10.975 6.12356V6.265V7.81V7.98444L11.1475 7.9583C11.3801 7.92306 11.6199 7.92306 11.8525 7.9583Z" fill="#1D2F3B" stroke="#1D2F3B" stroke-width="0.3"/>
<path d="M11.1025 7.66168L10.975 7.681V7.80999V8.12499C10.975 8.41783 11.2072 8.64999 11.5 8.64999C11.7928 8.64999 12.025 8.41783 12.025 8.12499V7.80999V7.681L11.8975 7.66168C11.6351 7.62192 11.3649 7.62192 11.1025 7.66168Z" fill="#1D2F3B" stroke="#1D2F3B" stroke-width="0.3"/>
<path d="M11.869 6.41489L12.025 6.42113V6.26501V5.875C12.025 5.62377 11.8487 5.41671 11.6136 5.36244C11.5704 5.34975 11.5295 5.3499 11.5053 5.34999C11.5034 5.34999 11.5017 5.35 11.5 5.35C11.4983 5.35 11.4965 5.34999 11.4947 5.34999C11.4704 5.3499 11.4296 5.34975 11.3864 5.36244C11.1513 5.41671 10.975 5.62377 10.975 5.875V6.26501V6.42409L11.1338 6.41475C11.1401 6.41437 11.1464 6.414 11.1527 6.41363C11.2728 6.40655 11.3819 6.40012 11.497 6.40001L11.869 6.41489Z" fill="#1D2F3B" stroke="#1D2F3B" stroke-width="0.3"/>
<path d="M10.975 13.735V13.8764L11.1162 13.8847C11.1233 13.8851 11.1303 13.8856 11.1374 13.886C11.2565 13.893 11.3747 13.9 11.5 13.9C11.6253 13.9 11.7435 13.893 11.8626 13.886C11.8697 13.8856 11.8767 13.8851 11.8838 13.8847L12.025 13.8764V13.735V12.22V12.0412L11.8489 12.0723C11.7322 12.0929 11.6213 12.1 11.5 12.1C11.3787 12.1 11.2678 12.0929 11.1511 12.0723L10.975 12.0412V12.22V13.735Z" fill="#1D2F3B" stroke="#1D2F3B" stroke-width="0.3"/>
<path d="M10.3288 8.82899L10.5381 9.04381C10.5427 9.03943 10.5473 9.03498 10.5517 9.03047C10.7995 8.78859 11.146 8.65006 11.4998 8.65006V8.50006V8.35006C11.3727 8.35006 11.2748 8.25222 11.2748 8.12506V7.81006V7.63492L11.1018 7.66184C10.7449 7.71736 10.4003 7.84472 10.1093 8.04685L9.96185 8.14922L10.0888 8.27612L10.3288 8.51612L10.3287 8.51616L10.3315 8.51881C10.4167 8.59978 10.4192 8.73492 10.3388 8.81899C10.3355 8.82231 10.3321 8.82564 10.3288 8.82899Z" fill="#1D2F3B" stroke="#1D2F3B" stroke-width="0.3"/>
<path d="M10.5381 10.9562L10.3288 11.171C10.3321 11.1743 10.3354 11.1776 10.3387 11.1809C10.4192 11.265 10.4168 11.4002 10.3315 11.4812L10.3315 11.4812L10.3288 11.4839L10.0888 11.7239L9.96483 11.8478L10.1064 11.9511C10.4043 12.1685 10.7485 12.304 11.098 12.3675L11.2748 12.3997V12.2199V11.8749C11.2748 11.7478 11.3727 11.6499 11.4998 11.6499H11.6498V11.4999V11.4849V11.3349H11.4998C11.1489 11.3349 10.7966 11.2081 10.5514 10.9692C10.5471 10.9648 10.5426 10.9605 10.5381 10.9562Z" fill="#1D2F3B" stroke="#1D2F3B" stroke-width="0.3"/>
<path d="M9.54659 8.60967L9.47534 8.71259L9.56386 8.80111L9.80133 9.03859C9.90053 9.14683 10.0391 9.19755 10.1724 9.19755C10.3052 9.19755 10.4433 9.1472 10.5424 9.03977C10.75 8.83815 10.7491 8.50321 10.5397 8.30274L10.301 8.06398L10.2111 7.97413L10.1077 8.04798C9.99671 8.12729 9.90027 8.20756 9.80385 8.30398C9.70823 8.39961 9.61977 8.50396 9.54659 8.60967Z" fill="#1D2F3B" stroke="#1D2F3B" stroke-width="0.3"/>
<path d="M10.1138 11.9562L10.2155 12.0216L10.301 11.9361L10.5397 11.6973C10.7496 11.4964 10.75 11.1604 10.541 10.9589C10.3395 10.75 10.0035 10.7504 9.80261 10.9602L9.56386 11.1989L9.47534 11.2875L9.54659 11.3904C9.61977 11.4961 9.70823 11.6004 9.80386 11.6961C9.89622 11.7884 9.9952 11.8799 10.1138 11.9562Z" fill="#1D2F3B" stroke="#1D2F3B" stroke-width="0.3"/>
<path d="M10.3012 11.9361L10.4328 11.8045L10.2763 11.7039C10.1849 11.6451 10.1039 11.5716 10.0162 11.484C9.93185 11.3996 9.8553 11.309 9.79349 11.2197L9.69118 11.0719L9.56409 11.199L8.49159 12.2715L8.39846 12.3646L8.47876 12.469C8.55896 12.5733 8.64622 12.6682 8.73909 12.7611C8.83196 12.854 8.92694 12.9412 9.0312 13.0214L9.13559 13.1017L9.22872 13.0086L10.3012 11.9361Z" fill="#1D2F3B" stroke="#1D2F3B" stroke-width="0.3"/>
<path d="M9.13257 10.4026L9.15551 10.525H9.28H9.625C9.91784 10.525 10.15 10.2928 10.15 10C10.15 9.70716 9.91784 9.475 9.625 9.475H9.28H9.15551L9.13257 9.59736C9.10775 9.72971 9.1 9.86724 9.1 10C9.1 10.1328 9.10775 10.2703 9.13257 10.4026Z" fill="#1D2F3B" stroke="#1D2F3B" stroke-width="0.3"/>
<path d="M9.56409 8.8011L9.69118 8.92819L9.79349 8.78042C9.8553 8.69112 9.93185 8.60047 10.0162 8.5161C10.0998 8.43252 10.1834 8.36279 10.2823 8.29209L10.4264 8.18918L10.3012 8.06397L9.22872 6.99147L9.13559 6.89834L9.0312 6.97864C8.92694 7.05884 8.83196 7.14609 8.73909 7.23897C8.64622 7.33184 8.55896 7.42682 8.47876 7.53108L8.39846 7.63547L8.49159 7.7286L9.56409 8.8011Z" fill="#1D2F3B" stroke="#1D2F3B" stroke-width="0.3"/>
<path d="M8.21107 6.71675L8.42636 6.92565C8.42975 6.92224 8.43314 6.91883 8.43654 6.91542C8.52066 6.83571 8.65531 6.83836 8.73607 6.92338L8.73604 6.92341L8.73876 6.92613L9.01625 7.20363L9.11224 7.29962L9.21731 7.21366C9.77199 6.75982 10.4342 6.48631 11.14 6.41429L11.2748 6.40054V6.26507V5.87507C11.2748 5.76871 11.3501 5.67732 11.4567 5.65414L11.4229 5.35758C10.2205 5.373 9.08585 5.84113 8.22677 6.70092C8.22145 6.70606 8.21622 6.71134 8.21107 6.71675Z" fill="#1D2F3B" stroke="#1D2F3B" stroke-width="0.3"/>
<path d="M9.1321 9.59869L9.10077 9.77495H9.27979H9.62479C9.75194 9.77495 9.84978 9.87279 9.84978 9.99995H9.99979H10.1498C10.1498 9.64236 10.2857 9.31095 10.5271 9.05535C10.5337 9.04889 10.5401 9.04221 10.5463 9.03529L10.3273 8.8303C10.3228 8.83494 10.3183 8.83959 10.3139 8.84427C10.2784 8.87793 10.2276 8.89745 10.1723 8.89745C10.1119 8.89745 10.0569 8.87416 10.0213 8.8346L10.0214 8.83446L10.0159 8.82888L9.77585 8.58888L9.65193 8.46495L9.54862 8.60653C9.33157 8.90396 9.19576 9.24063 9.1321 9.59869Z" fill="#1D2F3B" stroke="#1D2F3B" stroke-width="0.3"/>
<path d="M9.54862 11.3934L9.65193 11.535L9.77585 11.4111L10.0159 11.1711L10.0159 11.1711L10.0185 11.1683C10.1007 11.0818 10.2387 11.0806 10.3225 11.1647C10.3241 11.1663 10.3257 11.168 10.3273 11.1696L10.5435 10.9617C10.5414 10.9594 10.5392 10.9572 10.537 10.9549C10.2894 10.698 10.1498 10.3624 10.1498 10H9.99979H9.84978C9.84978 10.1272 9.75194 10.225 9.62479 10.225H9.27979H9.10077L9.1321 10.4013C9.19576 10.7593 9.33157 11.096 9.54862 11.3934Z" fill="#1D2F3B" stroke="#1D2F3B" stroke-width="0.3"/>
<path d="M8.73875 13.0739L8.73861 13.0738L8.73333 13.0796C8.69772 13.1192 8.64274 13.1425 8.58232 13.1425C8.52972 13.1425 8.48124 13.1248 8.44608 13.0941C8.43949 13.0876 8.43292 13.081 8.42637 13.0744L8.20833 13.2803C8.21855 13.2917 8.22919 13.3024 8.24022 13.3125C9.09767 14.1638 10.2268 14.6271 11.4229 14.6425L11.4567 14.3459C11.3501 14.3227 11.2748 14.2313 11.2748 14.125V13.735V13.5995L11.14 13.5857C10.4342 13.5137 9.77199 13.2402 9.21731 12.7864L9.11224 12.7004L9.01625 12.7964L8.73875 13.0739Z" fill="#1D2F3B" stroke="#1D2F3B" stroke-width="0.3"/>
<path d="M9.28 10.525H9.46073L9.42743 10.3474C9.40724 10.2397 9.4 10.1222 9.4 10C9.4 9.87777 9.40724 9.76029 9.42743 9.65264L9.46073 9.475H9.28H7.765H7.62356L7.61526 9.61619C7.61484 9.62327 7.61443 9.63034 7.61401 9.63741C7.60697 9.75654 7.6 9.87467 7.6 10C7.6 10.1253 7.60697 10.2435 7.61401 10.3626C7.61443 10.3697 7.61484 10.3767 7.61526 10.3838L7.62356 10.525H7.765H9.28Z" fill="#1D2F3B" stroke="#1D2F3B" stroke-width="0.3"/>
<path d="M9.21398 7.21641L9.34939 7.11225L9.22859 6.99145L8.95233 6.7152C8.75141 6.50538 8.4154 6.50496 8.21393 6.71393C8.00496 6.9154 8.00538 7.25141 8.2152 7.45233L8.49145 7.72859L8.61225 7.84939L8.71641 7.71398C8.78621 7.62324 8.86396 7.53821 8.95109 7.45109C9.03821 7.36396 9.12324 7.28621 9.21398 7.21641Z" fill="#1D2F3B" stroke="#1D2F3B" stroke-width="0.3"/>
<path d="M9.22859 13.0085L9.34939 12.8877L9.21398 12.7836C9.12324 12.7138 9.03822 12.636 8.95109 12.5489C8.86396 12.4618 8.78622 12.3767 8.71641 12.286L8.61225 12.1506L8.49145 12.2714L8.2152 12.5476C8.00586 12.7481 8.00496 13.0831 8.21252 13.2847C8.31165 13.3921 8.44973 13.4425 8.58252 13.4425C8.7158 13.4425 8.85441 13.3917 8.95361 13.2835L9.22859 13.0085Z" fill="#1D2F3B" stroke="#1D2F3B" stroke-width="0.3"/>
<path d="M8.42541 6.92649L8.21651 6.7112C8.21109 6.71634 8.20582 6.72157 8.20068 6.72689C7.34088 7.58597 6.87275 8.72066 6.85734 9.92302L7.1539 9.95681C7.17707 9.85021 7.26847 9.77495 7.37482 9.77495H7.76482H7.9003L7.91405 9.64017C7.98607 8.93437 8.25958 8.27212 8.71341 7.71743L8.79937 7.61237L8.70339 7.51638L8.42589 7.23888L8.42592 7.23885L8.42313 7.2362C8.33812 7.15543 8.33547 7.02078 8.41518 6.93666C8.41858 6.93326 8.42199 6.92987 8.42541 6.92649Z" fill="#1D2F3B" stroke="#1D2F3B" stroke-width="0.3"/>
<path d="M8.42313 12.7637L8.42317 12.7637L8.42589 12.761L8.70339 12.4835L8.79937 12.3875L8.71341 12.2825C8.25958 11.7278 7.98607 11.0655 7.91405 10.3597L7.9003 10.225H7.76482H7.37482C7.26847 10.225 7.17708 10.1497 7.1539 10.0431L6.85734 10.0769C6.87275 11.2792 7.34088 12.4139 8.20068 13.273C8.20582 13.2783 8.21109 13.2836 8.21651 13.2887L8.42541 13.0734C8.42199 13.07 8.41858 13.0666 8.41518 13.0633C8.33547 12.9791 8.33812 12.8445 8.42313 12.7637Z" fill="#1D2F3B" stroke="#1D2F3B" stroke-width="0.3"/>
<path d="M7.91474 9.63381L7.92408 9.475H7.765H7.375C7.12362 9.475 6.91648 9.65154 6.86235 9.88676C6.84961 9.93112 6.84988 9.97818 6.84999 9.99634C6.84999 9.99774 6.85 9.99896 6.85 10C6.85 10.001 6.84999 10.0023 6.84999 10.0037C6.84988 10.0218 6.84961 10.0689 6.86235 10.1132C6.91648 10.3485 7.12362 10.525 7.375 10.525H7.765H7.92408L7.91474 10.3662C7.91437 10.3599 7.914 10.3536 7.91363 10.3473C7.90648 10.2262 7.9 10.1162 7.9 10C7.9 9.88379 7.90648 9.77383 7.91363 9.65272C7.914 9.64645 7.91437 9.64014 7.91474 9.63381Z" fill="#1D2F3B" stroke="#1D2F3B" stroke-width="0.3"/>
<path d="M3.25 12.1H3.1V12.25V12.625C3.1 12.7522 3.00216 12.85 2.875 12.85V13V13.15H3.85V14.35H2.875V14.5V14.65C3.00216 14.65 3.1 14.7478 3.1 14.875V15.25V15.4H3.25H4.375C4.66784 15.4 4.9 15.1678 4.9 14.875V12.625C4.9 12.3322 4.66784 12.1 4.375 12.1H3.25Z" fill="#1D2F3B" stroke="#1D2F3B" stroke-width="0.3"/>
<path d="M3.25 4.6H3.1V4.75V5.125C3.1 5.25216 3.00216 5.35 2.875 5.35V5.5V5.65H3.85V6.84999H2.875V6.99999V7.14999C3.00216 7.14999 3.1 7.24784 3.1 7.37499V7.74999V7.89999H3.25H4.375C4.66784 7.89999 4.9 7.66784 4.9 7.37499V5.125C4.9 4.83216 4.66784 4.6 4.375 4.6H3.25Z" fill="#1D2F3B" stroke="#1D2F3B" stroke-width="0.3"/>
<path d="M3.25 15.4H3.4V15.25V14.875C3.4 14.5822 3.16784 14.35 2.875 14.35C2.58216 14.35 2.35 14.5822 2.35 14.875V15.25V15.4H2.5H3.25Z" fill="#1D2F3B" stroke="#1D2F3B" stroke-width="0.3"/>
<path d="M3.4 12.25V12.1H3.25H2.5H2.35V12.25V12.625C2.35 12.9178 2.58216 13.15 2.875 13.15C3.16784 13.15 3.4 12.9178 3.4 12.625V12.25Z" fill="#1D2F3B" stroke="#1D2F3B" stroke-width="0.3"/>
<path d="M2.5 7.6H2.35V7.75V12.25V12.4H2.5H3.25H3.4V12.25V7.75V7.6H3.25H2.5Z" fill="#1D2F3B" stroke="#1D2F3B" stroke-width="0.3"/>
<path d="M3.25 7.90001H3.4V7.75001V7.375C3.4 7.08216 3.16784 6.85 2.875 6.85C2.58216 6.85 2.35 7.08216 2.35 7.375V7.75001V7.90001H2.5H3.25Z" fill="#1D2F3B" stroke="#1D2F3B" stroke-width="0.3"/>
<path d="M3.4 4.75V4.6H3.25H2.5H2.35V4.75V5.125C2.35 5.41784 2.58216 5.65 2.875 5.65C3.16784 5.65 3.4 5.41784 3.4 5.125V4.75Z" fill="#1D2F3B" stroke="#1D2F3B" stroke-width="0.3"/>
<path d="M3.25 4.9H3.4V4.75V2.875C3.4 2.33534 3.83534 1.9 4.375 1.9H17.125C17.6647 1.9 18.1 2.33534 18.1 2.875V17.125C18.1 17.6647 17.6647 18.1 17.125 18.1H4.375C3.83534 18.1 3.4 17.6647 3.4 17.125V15.25V15.1H3.25H2.5H2.35V15.25V17.125C2.35 18.2428 3.25716 19.15 4.375 19.15H17.125C18.2429 19.15 19.15 18.2428 19.15 17.125V2.875C19.15 1.75716 18.2429 0.85 17.125 0.85H4.375C3.25716 0.85 2.35 1.75716 2.35 2.875V4.75V4.9H2.5H3.25Z" fill="#1D2F3B" stroke="#1D2F3B" stroke-width="0.3"/>
<path d="M2.5 7.89999H2.65V7.74999V7.37499C2.65 7.24784 2.74784 7.14999 2.875 7.14999V6.99999V6.84999H1.9V5.65H2.875V5.5V5.35C2.74784 5.35 2.65 5.25216 2.65 5.125V4.75V4.6H2.5H1.375C1.08216 4.6 0.85 4.83216 0.85 5.125V7.37499C0.85 7.66784 1.08216 7.89999 1.375 7.89999H2.5Z" fill="#1D2F3B" stroke="#1D2F3B" stroke-width="0.3"/>
<path d="M2.875 13V12.85C2.74784 12.85 2.65 12.7522 2.65 12.625V12.25V12.1H2.5H1.375C1.08216 12.1 0.85 12.3322 0.85 12.625V14.875C0.85 15.1678 1.08216 15.4 1.375 15.4H2.5H2.65V15.25V14.875C2.65 14.7478 2.74784 14.65 2.875 14.65V14.5V14.35H1.9V13.15H2.875V13Z" fill="#1D2F3B" stroke="#1D2F3B" stroke-width="0.3"/>
</svg>
