<svg width="20" height="18" viewBox="0 0 20 18" fill="none" xmlns="http://www.w3.org/2000/svg">
<path d="M6.20312 9.88516C5.15102 9.88516 4.29531 10.7409 4.29531 11.793C4.29531 12.8451 5.15102 13.7008 6.20312 13.7008C7.25523 13.7008 8.11094 12.8451 8.11094 11.793C8.11094 10.7409 7.25523 9.88516 6.20312 9.88516ZM6.20312 12.3461C5.89826 12.3461 5.65 12.0978 5.65 11.793C5.65 11.4881 5.89826 11.2398 6.20312 11.2398C6.50799 11.2398 6.75625 11.4881 6.75625 11.793C6.75625 12.0978 6.50799 12.3461 6.20312 12.3461Z" fill="white" stroke="black" stroke-width="0.3"/>
<path d="M18.2735 12.4085V10C18.2735 8.46512 17.0265 7.21629 15.4923 7.21329V5.68516H15.6953C16.0694 5.68516 16.3727 5.38189 16.3727 5.00781C16.3727 4.63374 16.0694 4.33047 15.6953 4.33047H15.4478C14.7253 4.33047 14.1376 4.91811 14.1376 5.6407V7.21328H13.1547L11.6236 2.20469H12.2393C12.6134 2.20469 12.9166 1.90142 12.9166 1.52734C12.9166 1.15327 12.6134 0.85 12.2393 0.85H4.34631C3.97224 0.85 3.66897 1.15327 3.66897 1.52734V7.07878C1.99248 7.98352 0.85 9.75696 0.85 11.793C0.85 14.7448 3.25129 17.1461 6.20312 17.1461C8.40199 17.1461 10.2944 15.8136 11.1174 13.9147H13.7274C13.6976 14.0761 13.682 14.2424 13.682 14.4121C13.682 15.9198 14.9084 17.1461 16.416 17.1461C17.9237 17.1461 19.15 15.9198 19.15 14.4121C19.15 13.6209 18.8117 12.9078 18.2735 12.4085ZM15.9859 8.6582C16.3968 8.81157 16.7189 9.14861 16.852 9.56875H16.3633C16.1553 9.56875 15.9859 9.39934 15.9859 9.19141V8.6582ZM10.207 2.20469L11.7381 7.21328H8.97194C8.78581 7.10033 8.59229 6.9983 8.39219 6.90825V2.20469H10.207ZM5.02366 2.20469H7.0375V6.50519C6.76556 6.46234 6.48691 6.43988 6.20312 6.43988C5.79807 6.43988 5.40333 6.48533 5.02366 6.5711V2.20469ZM6.20312 15.7914C3.99853 15.7914 2.20469 13.9976 2.20469 11.793C2.20469 9.58837 3.99853 7.79453 6.20312 7.79453C8.40772 7.79453 10.2016 9.58837 10.2016 11.793C10.2016 13.9976 8.40772 15.7914 6.20312 15.7914ZM11.5014 12.56C11.5375 12.3094 11.5562 12.0533 11.5562 11.793C11.5562 10.5829 11.1524 9.46538 10.4729 8.56797H14.6313V9.19141C14.6313 10.1466 15.4081 10.9234 16.3633 10.9234H16.9188V11.7246C16.7557 11.6941 16.5877 11.6781 16.416 11.6781C15.6222 11.6781 14.907 12.0187 14.4075 12.56H11.5014ZM16.416 15.7914C15.6556 15.7914 15.0367 15.1725 15.0367 14.4121C15.0367 13.6517 15.6556 13.0328 16.416 13.0328C17.1764 13.0328 17.7953 13.6517 17.7953 14.4121C17.7953 15.1725 17.1764 15.7914 16.416 15.7914Z" fill="white" stroke="black" stroke-width="0.3"/>
</svg>
