<svg width="18" height="18" viewBox="0 0 18 18" fill="none" xmlns="http://www.w3.org/2000/svg">
<path d="M9 16.5C13.1421 16.5 16.5 13.1421 16.5 9C16.5 4.85786 13.1421 1.5 9 1.5C4.85786 1.5 1.5 4.85786 1.5 9C1.5 13.1421 4.85786 16.5 9 16.5Z" stroke="#1D2F3B" stroke-width="2" stroke-linecap="round" stroke-linejoin="round"/>
<path d="M5.97232 8.88006L5.88232 9.00006L5.97232 9.12006L8.83981 12.9434L8.99981 13.1567L9.15981 12.9434L12.0273 9.12006L12.1173 9.00006L12.0273 8.88006L9.15981 5.05676L8.99981 4.84342L8.83981 5.05676L5.97232 8.88006ZM10.9541 9.00006L8.99981 11.6058L7.04555 9.00006L8.99981 6.39434L10.9541 9.00006Z" fill="#1D2F3B" stroke="#1D2F3B" stroke-width="0.4"/>
</svg>
