<svg width="18" height="18" viewBox="0 0 18 18" fill="none" xmlns="http://www.w3.org/2000/svg">
<path fill-rule="evenodd" clip-rule="evenodd" d="M4.5 3H13.5C15.1569 3 16.5 4.34315 16.5 6V12C16.5 13.6569 15.1569 15 13.5 15H4.5C2.84315 15 1.5 13.6569 1.5 12V6C1.5 4.34315 2.84315 3 4.5 3ZM15 6C15 5.17157 14.3284 4.5 13.5 4.5H4.5C3.67157 4.5 3 5.17157 3 6V12C3 12.8284 3.67157 13.5 4.5 13.5H13.5C14.3284 13.5 15 12.8284 15 12V7.5H8.25C7.83579 7.5 7.5 7.16421 7.5 6.75C7.5 6.33579 7.83579 6 8.25 6H15ZM4.5 6.75C4.5 7.16421 4.83579 7.5 5.25 7.5C5.66421 7.5 6 7.16421 6 6.75C6 6.33579 5.66421 6 5.25 6C4.83579 6 4.5 6.33579 4.5 6.75Z" fill="white"/>
</svg>
