<svg width="26" height="26" viewBox="0 0 26 26" fill="none" xmlns="http://www.w3.org/2000/svg">
<path d="M5.96442 4.47971L7.37839 5.89368C7.78841 6.30369 7.78842 6.96832 7.37844 7.37835C7.17365 7.58366 6.90473 7.68604 6.63604 7.68604C6.36737 7.68604 6.09847 7.58368 5.89369 7.37839L5.96442 4.47971ZM5.96442 4.47971C5.5549 4.06966 4.88922 4.06965 4.47969 4.47969M5.96442 4.47971L5.92904 4.51504L5.9644 4.47969L5.96442 4.47971ZM5.96442 4.47971L5.89364 7.37835L4.47969 5.96439C4.06966 5.55437 4.06966 4.88971 4.47969 4.47969M4.47969 4.47969L4.51504 4.51504L4.47966 4.47971C4.47967 4.4797 4.47968 4.47969 4.47969 4.47969Z" fill="#1D2F3B" stroke="#1D2F3B" stroke-width="0.1"/>
<path d="M4 11.95H2C1.42039 11.95 0.95 12.4204 0.95 13C0.95 13.5796 1.42039 14.05 2 14.05H4C4.57961 14.05 5.05 13.5796 5.05 13C5.05 12.4204 4.57961 11.95 4 11.95Z" fill="#1D2F3B" stroke="#1D2F3B" stroke-width="0.1"/>
<path d="M7.37842 18.6218C6.96889 18.2117 6.30319 18.2117 5.89366 18.6218M7.37842 18.6218L7.34304 18.6571M7.37842 18.6218C7.37841 18.6218 7.3784 18.6218 7.37839 18.6218L7.34304 18.6571M7.37842 18.6218C7.78842 19.0318 7.78841 19.6965 7.37839 20.1065L5.96444 21.5204M5.89366 18.6218L7.34304 18.6571M5.89366 18.6218L4.47969 20.0358C4.06967 20.4458 4.06966 21.1104 4.47966 21.5205M5.89366 18.6218L5.89369 18.6218L5.92904 18.6571L4.47966 21.5205M7.34304 18.6571C7.73354 19.0476 7.73354 19.6806 7.34304 20.0711L5.92904 21.4851M5.96444 21.5204L5.92904 21.4851M5.96444 21.5204C5.75965 21.7258 5.49073 21.8281 5.22204 21.8281C4.95336 21.8281 4.68445 21.7258 4.47966 21.5205M5.96444 21.5204L5.9644 21.5205L5.92904 21.4851M5.92904 21.4851L4.47966 21.5205M4.47966 21.5205C4.47967 21.5205 4.47968 21.5205 4.47969 21.5205L4.51504 21.4851L4.47964 21.5204C4.47965 21.5204 4.47966 21.5205 4.47966 21.5205Z" fill="#1D2F3B" stroke="#1D2F3B" stroke-width="0.1"/>
<path d="M13 20.95C12.4204 20.95 11.95 21.4204 11.95 22V24C11.95 24.5796 12.4204 25.05 13 25.05C13.5796 25.05 14.05 24.5796 14.05 24V22C14.05 21.4204 13.5796 20.95 13 20.95Z" fill="#1D2F3B" stroke="#1D2F3B" stroke-width="0.1"/>
<path d="M21.5205 20.0358L20.1065 18.6218L20.0711 18.6571C19.6811 18.2666 19.0471 18.2666 18.6571 18.6571L18.6218 18.6218C18.6218 18.6218 18.6218 18.6218 18.6218 18.6218C18.2118 19.0318 18.2118 19.6965 18.6218 20.1065L20.0357 21.5204C20.2405 21.7258 20.5094 21.8281 20.7781 21.8281C21.0468 21.8281 21.3157 21.7258 21.5205 21.5204C21.9305 21.1104 21.9305 20.4458 21.5205 20.0358Z" fill="#1D2F3B" stroke="#1D2F3B" stroke-width="0.1"/>
<path d="M24 11.95H22C21.4204 11.95 20.95 12.4204 20.95 13C20.95 13.5796 21.4204 14.05 22 14.05H24C24.5796 14.05 25.05 13.5796 25.05 13C25.05 12.4204 24.5796 11.95 24 11.95Z" fill="#1D2F3B" stroke="#1D2F3B" stroke-width="0.1"/>
<path d="M21.5205 4.47971C21.111 4.06965 20.4453 4.06965 20.0358 4.47971M21.5205 4.47971L21.4851 4.51504L21.5205 4.47969C21.5205 4.47969 21.5205 4.4797 21.5205 4.47971ZM21.5205 4.47971C21.9305 4.88974 21.9305 5.55438 21.5205 5.96439L20.1065 7.37835L20.0358 4.47971M20.0358 4.47971L18.6218 5.89368C18.2118 6.3037 18.2118 6.96834 18.6218 7.37837M20.0358 4.47971L20.0711 4.51504M20.0358 4.47971L20.0358 4.47969L20.0711 4.51504M20.0358 4.47971L20.0711 4.51504M18.6218 7.37837C18.8265 7.58367 19.0954 7.68604 19.3641 7.68604C19.6328 7.68604 19.9017 7.58368 20.1065 7.37839L18.6571 7.34304M18.6218 7.37837C18.6217 7.37836 18.6217 7.37835 18.6217 7.37835L18.6571 7.34304M18.6218 7.37837C18.6218 7.37838 18.6218 7.37838 18.6218 7.37839L18.6571 7.34304M18.6571 7.34304C18.2666 6.95254 18.2666 6.31954 18.6571 5.92904L20.0711 4.51504" fill="#1D2F3B" stroke="#1D2F3B" stroke-width="0.1"/>
<path d="M13 0.95C12.4204 0.95 11.95 1.42039 11.95 2V4C11.95 4.57961 12.4204 5.05 13 5.05C13.5796 5.05 14.05 4.57961 14.05 4V2C14.05 1.42039 13.5796 0.95 13 0.95Z" fill="#1D2F3B" stroke="#1D2F3B" stroke-width="0.1"/>
<path d="M13 6.45C9.38839 6.45 6.45 9.38839 6.45 13C6.45 16.6116 9.38839 19.55 13 19.55C16.6116 19.55 19.55 16.6116 19.55 13C19.55 9.38839 16.6116 6.45 13 6.45ZM13 17.45C10.5466 17.45 8.55 15.4534 8.55 13C8.55 10.5466 10.5466 8.55 13 8.55C15.4534 8.55 17.45 10.5466 17.45 13C17.45 15.4534 15.4534 17.45 13 17.45Z" fill="#1D2F3B" stroke="#1D2F3B" stroke-width="0.1"/>
</svg>
