<svg width="26" height="26" viewBox="0 0 26 26" fill="none" xmlns="http://www.w3.org/2000/svg">
<path d="M5.96491 4.47971L7.37888 5.89368C7.78889 6.30369 7.78891 6.96832 7.37893 7.37835C7.17414 7.58366 6.90522 7.68604 6.63653 7.68604C6.36786 7.68604 6.09896 7.58368 5.89417 7.37839L5.96491 4.47971ZM5.96491 4.47971C5.55538 4.06966 4.88971 4.06965 4.48018 4.47969M5.96491 4.47971L5.92953 4.51504L5.96488 4.47969L5.96491 4.47971ZM5.96491 4.47971L5.89413 7.37835L4.48018 5.96439C4.07015 5.55437 4.07015 4.88971 4.48018 4.47969M4.48018 4.47969L4.51553 4.51504L4.48015 4.47971C4.48016 4.4797 4.48017 4.47969 4.48018 4.47969Z" fill="white" stroke="white" stroke-width="0.1"/>
<path d="M4 11.95H2C1.42039 11.95 0.95 12.4204 0.95 13C0.95 13.5796 1.42039 14.05 2 14.05H4C4.57961 14.05 5.05 13.5796 5.05 13C5.05 12.4204 4.57961 11.95 4 11.95Z" fill="white" stroke="white" stroke-width="0.1"/>
<path d="M7.37891 18.6218C6.96937 18.2117 6.30368 18.2117 5.89415 18.6218M7.37891 18.6218L7.34353 18.6571M7.37891 18.6218C7.3789 18.6218 7.37889 18.6218 7.37888 18.6218L7.34353 18.6571M7.37891 18.6218C7.78891 19.0318 7.7889 19.6965 7.37888 20.1065L5.96493 21.5204M5.89415 18.6218L7.34353 18.6571M5.89415 18.6218L4.48018 20.0358C4.07016 20.4458 4.07015 21.1104 4.48015 21.5205M5.89415 18.6218L5.89417 18.6218L5.92953 18.6571L4.48015 21.5205M7.34353 18.6571C7.73403 19.0476 7.73403 19.6806 7.34353 20.0711L5.92953 21.4851M5.96493 21.5204L5.92953 21.4851M5.96493 21.5204C5.76014 21.7258 5.49122 21.8281 5.22253 21.8281C4.95385 21.8281 4.68494 21.7258 4.48015 21.5205M5.96493 21.5204L5.96488 21.5205L5.92953 21.4851M5.92953 21.4851L4.48015 21.5205M4.48015 21.5205C4.48016 21.5205 4.48017 21.5205 4.48018 21.5205L4.51553 21.4851L4.48013 21.5204C4.48014 21.5204 4.48015 21.5205 4.48015 21.5205Z" fill="white" stroke="white" stroke-width="0.1"/>
<path d="M13 20.95C12.4204 20.95 11.95 21.4204 11.95 22V24C11.95 24.5796 12.4204 25.05 13 25.05C13.5796 25.05 14.05 24.5796 14.05 24V22C14.05 21.4204 13.5796 20.95 13 20.95Z" fill="white" stroke="white" stroke-width="0.1"/>
<path d="M21.5195 20.0358L20.1055 18.6218L20.0702 18.6571C19.6802 18.2666 19.0462 18.2666 18.6562 18.6571L18.6208 18.6218C18.6208 18.6218 18.6208 18.6218 18.6208 18.6218C18.2108 19.0318 18.2108 19.6965 18.6208 20.1065L20.0348 21.5204C20.2395 21.7258 20.5085 21.8281 20.7772 21.8281C21.0458 21.8281 21.3148 21.7258 21.5196 21.5204C21.9295 21.1104 21.9295 20.4458 21.5195 20.0358Z" fill="white" stroke="white" stroke-width="0.1"/>
<path d="M24 11.95H22C21.4204 11.95 20.95 12.4204 20.95 13C20.95 13.5796 21.4204 14.05 22 14.05H24C24.5796 14.05 25.05 13.5796 25.05 13C25.05 12.4204 24.5796 11.95 24 11.95Z" fill="white" stroke="white" stroke-width="0.1"/>
<path d="M21.5195 4.47971C21.11 4.06965 20.4443 4.06965 20.0348 4.47971M21.5195 4.47971L21.4842 4.51504L21.5195 4.47969C21.5195 4.47969 21.5195 4.4797 21.5195 4.47971ZM21.5195 4.47971C21.9295 4.88974 21.9295 5.55438 21.5195 5.96439L20.1056 7.37835L20.0348 4.47971M20.0348 4.47971L18.6208 5.89368C18.2108 6.3037 18.2108 6.96834 18.6208 7.37837M20.0348 4.47971L20.0702 4.51504M20.0348 4.47971L20.0348 4.47969L20.0702 4.51504M20.0348 4.47971L20.0702 4.51504M18.6208 7.37837C18.8256 7.58367 19.0945 7.68604 19.3632 7.68604C19.6318 7.68604 19.9007 7.58368 20.1055 7.37839L18.6562 7.34304M18.6208 7.37837C18.6208 7.37836 18.6208 7.37835 18.6208 7.37835L18.6562 7.34304M18.6208 7.37837C18.6208 7.37838 18.6208 7.37838 18.6208 7.37839L18.6562 7.34304M18.6562 7.34304C18.2657 6.95254 18.2657 6.31954 18.6562 5.92904L20.0702 4.51504" fill="white" stroke="white" stroke-width="0.1"/>
<path d="M13 0.95C12.4204 0.95 11.95 1.42039 11.95 2V4C11.95 4.57961 12.4204 5.05 13 5.05C13.5796 5.05 14.05 4.57961 14.05 4V2C14.05 1.42039 13.5796 0.95 13 0.95Z" fill="white" stroke="white" stroke-width="0.1"/>
<path d="M13 6.45C9.38839 6.45 6.45 9.38839 6.45 13C6.45 16.6116 9.38839 19.55 13 19.55C16.6116 19.55 19.55 16.6116 19.55 13C19.55 9.38839 16.6116 6.45 13 6.45ZM13 17.45C10.5466 17.45 8.55 15.4534 8.55 13C8.55 10.5466 10.5466 8.55 13 8.55C15.4534 8.55 17.45 10.5466 17.45 13C17.45 15.4534 15.4534 17.45 13 17.45Z" fill="white" stroke="white" stroke-width="0.1"/>
</svg>
