<svg width="30" height="30" viewBox="0 0 30 30" fill="none" xmlns="http://www.w3.org/2000/svg">
<g opacity="0.5">
<path d="M15 0C19.485 0.00550781 23.1195 3.63996 23.125 8.12502V13.125C23.125 13.4702 22.8452 13.75 22.5 13.75H20C19.6548 13.75 19.3749 13.4702 19.3749 13.125V8.12502C19.375 5.70873 17.4162 3.75 15 3.75C12.5838 3.75 10.625 5.70873 10.625 8.12502V13.125C10.625 13.4702 10.3451 13.75 9.99995 13.75H7.49999C7.15481 13.75 6.87497 13.4702 6.87497 13.125V8.12502C6.88048 3.63996 10.515 0.00550781 15 0Z" fill="#455A64"/>
<path d="M22.5 12.5H7.50002C5.77414 12.5 4.37503 13.8991 4.37503 15.625V26.875C4.37503 28.6009 5.77414 30 7.50002 30H22.5C24.2259 30 25.625 28.6009 25.625 26.875V15.625C25.625 13.8991 24.2259 12.5 22.5 12.5Z" fill="#FFC107"/>
<path d="M11.875 19.375C11.8677 17.6491 13.2609 16.2441 14.9868 16.2368C16.7127 16.2296 18.1177 17.6228 18.125 19.3486C18.13 20.5416 17.4554 21.6333 16.3863 22.1625L16.8688 25.5375C16.9171 25.8793 16.6792 26.1955 16.3375 26.2439C16.3085 26.248 16.2793 26.25 16.25 26.25H13.75C13.4048 26.2535 13.1222 25.9765 13.1187 25.6314C13.1184 25.5996 13.1205 25.5677 13.1251 25.5363L13.6076 22.1613C12.5515 21.6328 11.8819 20.5559 11.875 19.375Z" fill="#455A64"/>
</g>
</svg>
