<svg width="36" height="36" viewBox="0 0 36 36" fill="none" xmlns="http://www.w3.org/2000/svg">
<circle cx="18" cy="18" r="18" fill="#3FDBB1" fill-opacity="0.2"/>
<g clip-path="url(#clip0)">
<path d="M25.7085 28H11.7502C10.486 28 9.4585 26.9725 9.4585 25.7083V10.2917C9.4585 9.0275 10.486 8 11.7502 8H25.7085C26.9727 8 28.0002 9.0275 28.0002 10.2917V25.7083C28.0002 26.9725 26.9727 28 25.7085 28Z" fill="#3FDBB1"/>
<path d="M18.8335 8H11.7502C10.486 8 9.4585 9.0275 9.4585 10.2917V25.7083C9.4585 26.9725 10.486 28 11.7502 28H18.8335V8Z" fill="#51E6BE"/>
<path d="M11.5417 15.5001H8.625C8.28 15.5001 8 15.2201 8 14.8751V12.7917C8 12.4467 8.28 12.1667 8.625 12.1667H11.5417C11.8867 12.1667 12.1667 12.4467 12.1667 12.7917V14.8751C12.1667 15.2201 11.8867 15.5001 11.5417 15.5001Z" fill="#3FDBB1"/>
<path d="M11.5417 23.8333H8.625C8.28 23.8333 8 23.5533 8 23.2083V21.125C8 20.78 8.28 20.5 8.625 20.5H11.5417C11.8867 20.5 12.1667 20.78 12.1667 21.125V23.2083C12.1667 23.5533 11.8867 23.8333 11.5417 23.8333Z" fill="#3FDBB1"/>
<path d="M12.1667 22.1667H8V23.2084C8 23.5534 8.28 23.8334 8.625 23.8334H11.5417C11.8867 23.8334 12.1667 23.5534 12.1667 23.2084V22.1667Z" fill="#4ECBA9"/>
<path d="M12.1667 13.8333H8V14.8749C8 15.2199 8.28 15.4999 8.625 15.4999H11.5417C11.8867 15.4999 12.1667 15.2199 12.1667 14.8749V13.8333Z" fill="#4ECBA9"/>
<path d="M18.8335 23C17.496 23 16.241 22.48 15.2977 21.5367C14.3535 20.5925 13.8335 19.3358 13.8335 18C13.8335 16.6633 14.3535 15.4075 15.2977 14.4633C16.241 13.52 17.4968 13 18.8335 13C20.1702 13 21.426 13.5192 22.3693 14.4633C23.3135 15.4075 23.8335 16.6633 23.8335 18C23.8335 19.3358 23.3135 20.5925 22.3693 21.5367C21.426 22.48 20.1702 23 18.8335 23Z" fill="#607D8B"/>
<path d="M18.8335 13C17.496 13 16.241 13.52 15.2977 14.4633C14.3535 15.4075 13.8335 16.6633 13.8335 18C13.8335 19.3358 14.3535 20.5925 15.2977 21.5367C16.241 22.48 17.4968 23 18.8335 23V20.5183C18.1735 20.5183 17.5285 20.25 17.0643 19.7825C16.5927 19.3075 16.3335 18.675 16.3335 18.0008C16.3335 17.3258 16.5927 16.6942 17.0643 16.2192C17.5285 15.7517 18.181 15.5175 18.8335 15.5175V13Z" fill="#546D79"/>
<path d="M18.8333 16.8641C18.5458 16.8641 18.3125 16.6308 18.3125 16.3433V14.3541C18.3125 14.0666 18.5458 13.8333 18.8333 13.8333C19.1208 13.8333 19.3542 14.0666 19.3542 14.3541V16.3433C19.3542 16.6299 19.1208 16.8641 18.8333 16.8641Z" fill="#455A64"/>
<path d="M18.8333 22.1666C18.5458 22.1666 18.3125 21.9332 18.3125 21.6457V19.6566C18.3125 19.3691 18.5458 19.1357 18.8333 19.1357C19.1208 19.1357 19.3542 19.3691 19.3542 19.6566V21.6457C19.3542 21.9332 19.1208 22.1666 18.8333 22.1666Z" fill="#455A64"/>
<path d="M18.8333 13.8333C18.5458 13.8333 18.3125 14.0666 18.3125 14.3541V16.3433C18.3125 16.6308 18.5458 16.8641 18.8333 16.8641V13.8333Z" fill="#3C4E57"/>
<path d="M18.8333 19.1357C18.5458 19.1357 18.3125 19.3691 18.3125 19.6566V21.6457C18.3125 21.9332 18.5458 22.1666 18.8333 22.1666V19.1357Z" fill="#3C4E57"/>
<path d="M17.1757 18.5209H15.1873C14.8998 18.5209 14.6665 18.2876 14.6665 18.0001C14.6665 17.7126 14.8998 17.4792 15.1873 17.4792H17.1757C17.464 17.4792 17.6965 17.7126 17.6965 18.0001C17.6965 18.2876 17.4632 18.5209 17.1757 18.5209Z" fill="#455A64"/>
<path d="M22.4794 18.5209H20.491C20.2027 18.5209 19.9702 18.2876 19.9702 18.0001C19.9702 17.7126 20.2027 17.4792 20.491 17.4792H22.4794C22.7669 17.4792 23.0002 17.7126 23.0002 18.0001C23.0002 18.2876 22.7669 18.5209 22.4794 18.5209Z" fill="#455A64"/>
<path d="M17.6965 18H14.6665C14.6665 18.2875 14.8998 18.5208 15.1873 18.5208H17.1757C17.4632 18.5208 17.6965 18.2875 17.6965 18Z" fill="#3C4E57"/>
<path d="M23.0002 18H19.9702C19.9702 18.2875 20.2027 18.5208 20.491 18.5208H22.4794C22.7669 18.5208 23.0002 18.2875 23.0002 18Z" fill="#3C4E57"/>
<path d="M18.0302 17.1967C17.8269 17.4001 17.4969 17.4001 17.2935 17.1967L15.8869 15.79C15.6835 15.5867 15.6835 15.2567 15.8869 15.0534C16.0902 14.85 16.4202 14.85 16.6235 15.0534L18.0302 16.46C18.2335 16.6634 18.2335 16.9934 18.0302 17.1967Z" fill="#455A64"/>
<path d="M21.7802 20.9467C21.5769 21.1501 21.2469 21.1501 21.0435 20.9467L19.6369 19.54C19.4335 19.3367 19.4335 19.0067 19.6369 18.8034C19.8402 18.6 20.1702 18.6 20.3735 18.8034L21.7802 20.21C21.9836 20.4134 21.9827 20.7434 21.7802 20.9467Z" fill="#455A64"/>
<path d="M15.8869 15.0532C15.6835 15.2566 15.6835 15.5866 15.8869 15.7899L17.2935 17.1966C17.4969 17.3999 17.8269 17.3999 18.0302 17.1966L15.8869 15.0532Z" fill="#3C4E57"/>
<path d="M19.6369 18.8035C19.4335 19.0068 19.4335 19.3368 19.6369 19.5401L21.0435 20.9468C21.2469 21.1501 21.5769 21.1501 21.7802 20.9468L19.6369 18.8035Z" fill="#3C4E57"/>
<path d="M18.0294 19.5408L16.6235 20.9466C16.4202 21.1499 16.0902 21.1499 15.8869 20.9466C15.6835 20.7433 15.6835 20.4133 15.8869 20.2099L17.2927 18.8041C17.496 18.6008 17.826 18.6008 18.0294 18.8041C18.2327 19.0074 18.2335 19.3366 18.0294 19.5408Z" fill="#455A64"/>
<path d="M21.7799 15.79L20.374 17.1959C20.1707 17.3992 19.8407 17.3992 19.6374 17.1959C19.434 16.9925 19.434 16.6634 19.6374 16.4592L21.0432 15.0534C21.2465 14.85 21.5765 14.85 21.7799 15.0534C21.9832 15.2575 21.9824 15.5875 21.7799 15.79Z" fill="#455A64"/>
<path d="M18.0292 18.8042L15.8867 20.9467C16.0901 21.15 16.4201 21.15 16.6234 20.9467L18.0292 19.5409C18.2334 19.3367 18.2326 19.0075 18.0292 18.8042Z" fill="#3C4E57"/>
<path d="M21.7802 15.0532L19.6377 17.1957C19.841 17.3991 20.1702 17.3991 20.3744 17.1957L21.7802 15.7899C21.9827 15.5874 21.9835 15.2574 21.7802 15.0532Z" fill="#3C4E57"/>
<path d="M18.8335 20.5182C18.1735 20.5182 17.5285 20.2499 17.0643 19.7824C16.5927 19.3074 16.3335 18.6749 16.3335 18.0007C16.3335 17.3257 16.5927 16.6941 17.0643 16.2191C17.9918 15.2841 19.6752 15.2841 20.6027 16.2191C21.0743 16.6941 21.3335 17.3257 21.3335 18.0007C21.3335 18.6749 21.0743 19.3074 20.6027 19.7824C20.1385 20.2499 19.4935 20.5182 18.8335 20.5182Z" fill="#ECEFF1"/>
<path d="M18.8335 15.5176C18.181 15.5176 17.5285 15.7517 17.0643 16.2192C16.5927 16.6942 16.3335 17.3259 16.3335 18.0009C16.3335 18.6751 16.5927 19.3076 17.0643 19.7826C17.5285 20.2501 18.1735 20.5184 18.8335 20.5184V15.5176Z" fill="#CDD0D2"/>
</g>
<defs>
<clipPath id="clip0">
<rect width="20" height="20" fill="white" transform="translate(8 8)"/>
</clipPath>
</defs>
</svg>
