<svg width="24" height="24" viewBox="0 0 24 24" fill="none" xmlns="http://www.w3.org/2000/svg">
<g clip-path="url(#clip0)">
<path d="M21.25 24H4.5C2.983 24 1.75 22.767 1.75 21.25V2.75C1.75 1.233 2.983 0 4.5 0H21.25C22.767 0 24 1.233 24 2.75V21.25C24 22.767 22.767 24 21.25 24Z" fill="#3FDBB1"/>
<path d="M13 0H4.5C2.983 0 1.75 1.233 1.75 2.75V21.25C1.75 22.767 2.983 24 4.5 24H13V0Z" fill="#51E6BE"/>
<path d="M4.25 9.00012H0.75C0.336 9.00012 0 8.66412 0 8.25012V5.75012C0 5.33612 0.336 5.00012 0.75 5.00012H4.25C4.664 5.00012 5 5.33612 5 5.75012V8.25012C5 8.66412 4.664 9.00012 4.25 9.00012Z" fill="#3FDBB1"/>
<path d="M4.25 19H0.75C0.336 19 0 18.664 0 18.25V15.75C0 15.336 0.336 15 0.75 15H4.25C4.664 15 5 15.336 5 15.75V18.25C5 18.664 4.664 19 4.25 19Z" fill="#3FDBB1"/>
<path d="M5 17.0002H0V18.2502C0 18.6643 0.336 19.0003 0.75 19.0003H4.25C4.664 19.0003 5 18.6643 5 18.2502V17.0002Z" fill="#4ECBA9"/>
<path d="M5 6.99988H0V8.24988C0 8.66388 0.336 8.99988 0.75 8.99988H4.25C4.664 8.99988 5 8.66388 5 8.24988V6.99988Z" fill="#4ECBA9"/>
<path d="M13 18C11.395 18 9.889 17.376 8.757 16.244C7.624 15.111 7 13.603 7 12C7 10.396 7.624 8.889 8.757 7.756C9.889 6.624 11.396 6 13 6C14.604 6 16.111 6.623 17.243 7.756C18.376 8.889 19 10.396 19 12C19 13.603 18.376 15.111 17.243 16.244C16.111 17.376 14.604 18 13 18Z" fill="#607D8B"/>
<path d="M13 6C11.395 6 9.889 6.624 8.757 7.756C7.624 8.889 7 10.396 7 12C7 13.603 7.624 15.111 8.757 16.244C9.889 17.376 11.396 18 13 18V15.022C12.208 15.022 11.434 14.7 10.877 14.139C10.311 13.569 10 12.81 10 12.001C10 11.191 10.311 10.433 10.877 9.863C11.434 9.302 12.217 9.021 13 9.021V6Z" fill="#546D79"/>
<path d="M13 10.6369C12.655 10.6369 12.375 10.3569 12.375 10.0119V7.62488C12.375 7.27988 12.655 6.99988 13 6.99988C13.345 6.99988 13.625 7.27988 13.625 7.62488V10.0119C13.625 10.3559 13.345 10.6369 13 10.6369Z" fill="#455A64"/>
<path d="M13 17.0003C12.655 17.0003 12.375 16.7203 12.375 16.3753V13.9883C12.375 13.6433 12.655 13.3633 13 13.3633C13.345 13.3633 13.625 13.6433 13.625 13.9883V16.3753C13.625 16.7203 13.345 17.0003 13 17.0003Z" fill="#455A64"/>
<path d="M13 6.99988C12.655 6.99988 12.375 7.27988 12.375 7.62488V10.0119C12.375 10.3569 12.655 10.6369 13 10.6369V6.99988Z" fill="#3C4E57"/>
<path d="M13 13.3633C12.655 13.3633 12.375 13.6433 12.375 13.9883V16.3753C12.375 16.7203 12.655 17.0003 13 17.0003V13.3633Z" fill="#3C4E57"/>
<path d="M11.011 12.6251H8.625C8.28 12.6251 8 12.3451 8 12.0001C8 11.6551 8.28 11.3751 8.625 11.3751H11.011C11.357 11.3751 11.636 11.6551 11.636 12.0001C11.636 12.3451 11.356 12.6251 11.011 12.6251Z" fill="#455A64"/>
<path d="M17.3748 12.6251H14.9888C14.6428 12.6251 14.3638 12.3451 14.3638 12.0001C14.3638 11.6551 14.6428 11.3751 14.9888 11.3751H17.3748C17.7198 11.3751 17.9998 11.6551 17.9998 12.0001C17.9998 12.3451 17.7198 12.6251 17.3748 12.6251Z" fill="#455A64"/>
<path d="M11.636 12H8C8 12.345 8.28 12.625 8.625 12.625H11.011C11.356 12.625 11.636 12.345 11.636 12Z" fill="#3C4E57"/>
<path d="M17.9998 12H14.3638C14.3638 12.345 14.6428 12.625 14.9888 12.625H17.3748C17.7198 12.625 17.9998 12.345 17.9998 12Z" fill="#3C4E57"/>
<path d="M12.0363 11.0361C11.7923 11.2801 11.3963 11.2801 11.1523 11.0361L9.46425 9.34813C9.22025 9.10413 9.22025 8.70813 9.46425 8.46413C9.70825 8.22013 10.1043 8.22013 10.3483 8.46413L12.0363 10.1521C12.2803 10.3961 12.2803 10.7921 12.0363 11.0361Z" fill="#455A64"/>
<path d="M16.5363 15.536C16.2923 15.78 15.8963 15.78 15.6523 15.536L13.9643 13.848C13.7202 13.604 13.7202 13.208 13.9643 12.964C14.2083 12.72 14.6043 12.72 14.8483 12.964L16.5363 14.652C16.7803 14.896 16.7793 15.292 16.5363 15.536Z" fill="#455A64"/>
<path d="M9.46425 8.46411C9.22025 8.70811 9.22025 9.10411 9.46425 9.34811L11.1523 11.0361C11.3963 11.2801 11.7923 11.2801 12.0363 11.0361L9.46425 8.46411Z" fill="#3C4E57"/>
<path d="M13.9643 12.9641C13.7202 13.2081 13.7202 13.6041 13.9643 13.8481L15.6523 15.5361C15.8963 15.7801 16.2923 15.7801 16.5363 15.5361L13.9643 12.9641Z" fill="#3C4E57"/>
<path d="M12.0353 13.849L10.3483 15.536C10.1043 15.78 9.70825 15.78 9.46425 15.536C9.22025 15.292 9.22025 14.896 9.46425 14.652L11.1513 12.965C11.3953 12.721 11.7913 12.721 12.0353 12.965C12.2793 13.209 12.2803 13.604 12.0353 13.849Z" fill="#455A64"/>
<path d="M16.5362 9.34813L14.8492 11.0351C14.6052 11.2791 14.2092 11.2791 13.9652 11.0351C13.7212 10.7911 13.7212 10.3961 13.9652 10.1511L15.6522 8.46413C15.8962 8.22013 16.2922 8.22013 16.5362 8.46413C16.7802 8.70913 16.7792 9.10513 16.5362 9.34813Z" fill="#455A64"/>
<path d="M12.0349 12.9648L9.46387 15.5358C9.70787 15.7798 10.1039 15.7798 10.3479 15.5358L12.0349 13.8488C12.2799 13.6038 12.2789 13.2088 12.0349 12.9648Z" fill="#3C4E57"/>
<path d="M16.5358 8.46411L13.9648 11.0351C14.2088 11.2791 14.6038 11.2791 14.8488 11.0351L16.5358 9.34811C16.7788 9.10511 16.7798 8.70911 16.5358 8.46411Z" fill="#3C4E57"/>
<path d="M13 15.0219C12.208 15.0219 11.434 14.6999 10.877 14.1389C10.311 13.5689 10 12.8099 10 12.0009C10 11.1909 10.311 10.4329 10.877 9.86286C11.99 8.74086 14.01 8.74086 15.123 9.86286C15.689 10.4329 16 11.1909 16 12.0009C16 12.8099 15.689 13.5689 15.123 14.1389C14.566 14.6999 13.792 15.0219 13 15.0219Z" fill="#ECEFF1"/>
<path d="M13 9.02112C12.217 9.02112 11.434 9.30212 10.877 9.86312C10.311 10.4331 10 11.1911 10 12.0011C10 12.8101 10.311 13.5691 10.877 14.1391C11.434 14.7001 12.208 15.0221 13 15.0221V9.02112Z" fill="#CDD0D2"/>
</g>
<defs>
<clipPath id="clip0">
<rect width="24" height="24" fill="white"/>
</clipPath>
</defs>
</svg>
