<svg width="18" height="18" viewBox="0 0 18 18" fill="none" xmlns="http://www.w3.org/2000/svg">
<path d="M9 16.5C13.1421 16.5 16.5 13.1421 16.5 9C16.5 4.85786 13.1421 1.5 9 1.5C4.85786 1.5 1.5 4.85786 1.5 9C1.5 13.1421 4.85786 16.5 9 16.5Z" stroke="white" stroke-width="2" stroke-linecap="round" stroke-linejoin="round"/>
<path d="M5.97281 8.88006L5.88281 9.00006L5.97281 9.12006L8.8403 12.9434L9.0003 13.1567L9.1603 12.9434L12.0278 9.12006L12.1178 9.00006L12.0278 8.88006L9.1603 5.05676L9.0003 4.84342L8.8403 5.05676L5.97281 8.88006ZM10.9546 9.00006L9.0003 11.6058L7.04603 9.00006L9.0003 6.39434L10.9546 9.00006Z" fill="white" stroke="white" stroke-width="0.4"/>
</svg>
