<svg width="30" height="30" viewBox="0 0 30 30" fill="none" xmlns="http://www.w3.org/2000/svg">
<path d="M23.8942 11.076C23.8942 10.8757 23.8868 10.6809 23.8775 10.4889C24.7785 9.84923 25.5363 9.05077 26.1538 8.13138V8.13046C25.3295 8.49138 24.4526 8.73138 23.5369 8.84769C24.4785 8.28554 25.1975 7.40215 25.5354 6.33785C24.6575 6.86123 23.6883 7.23046 22.6554 7.43723C21.8218 6.54923 20.6338 6 19.3378 6C16.8234 6 14.7991 8.04092 14.7991 10.5425C14.7991 10.9025 14.8295 11.2486 14.9043 11.5782C11.1289 11.3935 7.78738 9.58431 5.54246 6.82708C5.15108 7.50738 4.92031 8.28554 4.92031 9.12277C4.92031 10.6957 5.72985 12.0895 6.93815 12.8972C6.208 12.8834 5.49262 12.6711 4.88615 12.3378V12.3877C4.88615 14.5948 6.46 16.428 8.52492 16.8508C7.83077 17.0409 6.976 17.0335 6.47477 16.9228C7.06277 18.7209 8.73354 20.0437 10.7182 20.0871C9.17292 21.2954 7.21046 22.0237 5.08646 22.0237C4.71446 22.0237 4.35723 22.0071 4 21.9618C6.01231 23.2588 8.39569 24 10.9674 24C19.3249 24 23.8942 17.0769 23.8942 11.076Z" fill="#1D2F3B"/>
</svg>
