<svg width="16" height="16" viewBox="0 0 16 16" fill="none" xmlns="http://www.w3.org/2000/svg">
<path d="M8.00065 14.6666C11.6825 14.6666 14.6673 11.6819 14.6673 7.99998C14.6673 4.31808 11.6825 1.33331 8.00065 1.33331C4.31875 1.33331 1.33398 4.31808 1.33398 7.99998C1.33398 11.6819 4.31875 14.6666 8.00065 14.6666Z" stroke="#1444F0" stroke-width="1.4" stroke-linecap="round" stroke-linejoin="round"/>
<path d="M8 11.3333H8.00667" stroke="#1444F0" stroke-width="1.4" stroke-linecap="round" stroke-linejoin="round"/>
<path d="M6.06055 5.99995C6.21728 5.5544 6.52665 5.17869 6.93385 4.93937C7.34105 4.70006 7.81981 4.61258 8.28533 4.69243C8.75085 4.77228 9.17309 5.0143 9.47726 5.37564C9.78144 5.73697 9.94792 6.1943 9.94721 6.66662C9.94721 7.99995 7.94721 8.66662 7.94721 8.66662" stroke="#1444F0" stroke-width="1.4" stroke-linecap="round" stroke-linejoin="round"/>
</svg>
