<svg width="18" height="18" viewBox="0 0 18 18" fill="none" xmlns="http://www.w3.org/2000/svg">
<path d="M15.6667 1H6.33333C5.59695 1 5 1.59695 5 2.33333V11.6667C5 12.403 5.59695 13 6.33333 13H15.6667C16.403 13 17 12.403 17 11.6667V2.33333C17 1.59695 16.403 1 15.6667 1Z" stroke="#1444F0" stroke-width="2" stroke-linecap="round" stroke-linejoin="round"/>
<path d="M11.6667 5H2.33333C1.59695 5 1 5.59695 1 6.33333V15.6667C1 16.403 1.59695 17 2.33333 17H11.6667C12.403 17 13 16.403 13 15.6667V6.33333C13 5.59695 12.403 5 11.6667 5Z" fill="white" stroke="#1444F0" stroke-width="2" stroke-linecap="round" stroke-linejoin="round"/>
</svg>
