<svg width="22" height="22" viewBox="0 0 22 22" fill="none" xmlns="http://www.w3.org/2000/svg">
<path fill-rule="evenodd" clip-rule="evenodd" d="M6.99995 5.9012C6.99995 5.40348 6.59647 5 6.09875 5V5C5.32469 5 4.93756 4.1068 5.55365 3.63818C7.1091 2.45508 8.84572 2 11 2C15.9705 2 20 6.02944 20 11C20 15.9706 15.9705 20 11 20C6.36685 20 2.55142 16.4991 2.05471 11.9984C1.99412 11.4494 1.55224 11 0.999955 11V11C0.44767 11 -0.00480025 11.4492 0.0447307 11.9993C0.549609 17.6061 5.26166 22 11 22C17.0751 22 22 17.0751 22 11C22 4.92487 17.0751 0 11 0C8.34298 0 6.13985 0.622528 4.19195 2.16424C3.73368 2.52694 2.99995 2.22329 2.99995 1.63886V1.63886C2.99995 1.28117 2.70999 0.991211 2.35231 0.991211H1.99995C1.44767 0.991211 0.999955 1.43893 0.999955 1.99121V6C0.999955 6.55228 1.44767 7 1.99995 7H5.99995C6.55224 7 6.99995 6.55228 6.99995 6V5.9012ZM16 11C16 10.4477 15.5522 10 15 10H13C12.4477 10 12 9.55228 12 9V6C12 5.44772 11.5522 5 11 5V5C10.4477 5 9.99995 5.44772 9.99995 6V11C9.99995 11.5523 10.4477 12 11 12H15C15.5522 12 16 11.5523 16 11V11Z" fill="white"/>
</svg>
