<svg width="22" height="22" viewBox="0 0 22 22" fill="none" xmlns="http://www.w3.org/2000/svg">
<path fill-rule="evenodd" clip-rule="evenodd" d="M7 5.9012C7 5.40348 6.59652 5 6.0988 5C5.32473 5 4.9376 4.1068 5.5537 3.63818C7.10915 2.45508 8.84576 2 11 2C15.9706 2 20 6.02944 20 11C20 15.9706 15.9706 20 11 20C6.3669 20 2.55147 16.4991 2.05475 11.9984C1.99417 11.4494 1.55228 11 1 11C0.447715 11 -0.00475508 11.4492 0.0447759 11.9993C0.549654 17.6061 5.2617 22 11 22C17.0751 22 22 17.0751 22 11C22 4.92487 17.0751 0 11 0C8.34303 0 6.1399 0.622528 4.19199 2.16424C3.73373 2.52694 3 2.22329 3 1.63886C3 1.28117 2.71004 0.991211 2.35236 0.991211H2C1.44772 0.991211 1 1.43893 1 1.99121V6C1 6.55228 1.44772 7 2 7H6C6.55228 7 7 6.55228 7 6V5.9012ZM16 11C16 10.4477 15.5523 10 15 10H13C12.4477 10 12 9.55229 12 9V6C12 5.44772 11.5523 5 11 5C10.4477 5 10 5.44772 10 6V11C10 11.5523 10.4477 12 11 12H15C15.5523 12 16 11.5523 16 11Z" fill="#1D2F3B"/>
</svg>
